<svg width="39" height="39" viewBox="0 0 39 39" fill="none" xmlns="http://www.w3.org/2000/svg">
<path fill-rule="evenodd" clip-rule="evenodd" d="M30.3993 10.8993C31.0339 10.2647 31.0339 9.2358 30.3993 8.6012C29.7647 7.96659 28.7358 7.96659 28.1012 8.6012L19.5002 17.2021L10.8993 8.6012C10.2647 7.96659 9.2358 7.96659 8.6012 8.6012C7.96659 9.2358 7.96659 10.2647 8.6012 10.8993L17.2021 19.5002L8.6012 28.1012C7.96659 28.7358 7.96659 29.7647 8.6012 30.3993C9.2358 31.0339 10.2647 31.0339 10.8993 30.3993L19.5002 21.7983L28.1012 30.3993C28.7358 31.0339 29.7647 31.0339 30.3993 30.3993C31.0339 29.7647 31.0339 28.7358 30.3993 28.1012L21.7983 19.5002L30.3993 10.8993Z" fill="#D9D9D9"/>
</svg>
