<svg width="110" height="25" viewBox="0 0 110 25" fill="none" xmlns="http://www.w3.org/2000/svg">
<path d="M0.408 24H6.68C12.756 24 16.956 20.724 16.956 13.472C16.956 6.22 12.756 3.14 6.4 3.14H0.408V24ZM5.42 19.968V7.144H6.092C9.452 7.144 11.832 8.516 11.832 13.472C11.832 18.428 9.452 19.968 6.092 19.968H5.42ZM20.5264 24H34.0504V19.8H25.5384V15.376H32.5104V11.176H25.5384V7.312H33.7424V3.14H20.5264V24ZM41.4672 24H47.4872L53.7312 3.14H48.6352L46.2832 12.66C45.6952 14.9 45.2752 17.028 44.6592 19.324H44.5192C43.9312 17.028 43.5112 14.9 42.8952 12.66L40.5152 3.14H35.2232L41.4672 24ZM53.7357 24H66.6437V20.108H59.9517L66.4198 10.728V8.068H54.4637V11.96H60.2038L53.7357 21.34V24ZM69.1421 24H74.1261V8.068H69.1421V24ZM71.6341 5.856C73.2861 5.856 74.4061 4.848 74.4061 3.28C74.4061 1.74 73.2861 0.731999 71.6341 0.731999C69.9541 0.731999 68.8621 1.74 68.8621 3.28C68.8621 4.848 69.9541 5.856 71.6341 5.856ZM77.8582 24H82.8422V13.36C83.7942 12.436 84.4662 11.932 85.5862 11.932C86.8462 11.932 87.4342 12.548 87.4342 14.76V24H92.4182V14.144C92.4182 10.168 90.9342 7.676 87.4622 7.676C85.3062 7.676 83.6822 8.768 82.3662 10.056H82.2822L81.9182 8.068H77.8582V24ZM103.232 24.392C105.08 24.392 107.264 23.748 108.916 22.572L107.264 19.576C106.116 20.248 105.052 20.584 103.904 20.584C101.888 20.584 100.376 19.688 99.9279 17.504H109.28C109.392 17.112 109.504 16.244 109.504 15.348C109.504 11.008 107.264 7.676 102.672 7.676C98.8359 7.676 95.1119 10.868 95.1119 16.02C95.1119 21.312 98.6399 24.392 103.232 24.392ZM99.8439 14.228C100.18 12.352 101.384 11.484 102.756 11.484C104.576 11.484 105.276 12.66 105.276 14.228H99.8439Z" fill="#191A20"/>
</svg>
