<svg width="405" height="277" viewBox="0 0 405 277" fill="none" xmlns="http://www.w3.org/2000/svg">
<path d="M55.3502 0H0V70.1958H55.3502V0Z" fill="white"/>
<path d="M55.3502 76.6348H0V148.56H55.3502V76.6348Z" fill="white"/>
<path d="M116.663 0H61.313V70.1958H116.663V0Z" fill="white"/>
<path d="M116.663 76.6348H61.313V148.56H116.663V76.6348Z" fill="white"/>
<path d="M143.944 211.684H138.136V232.19H143.944V211.684Z" fill="white"/>
<path d="M156.241 209.414H126.303C124.826 209.414 123.41 208.829 122.365 207.787C121.32 206.745 120.73 205.331 120.726 203.855C120.726 202.377 121.314 200.959 122.359 199.913C123.405 198.868 124.824 198.281 126.303 198.281H156.241C157.717 198.285 159.132 198.874 160.174 199.919C161.217 200.964 161.802 202.379 161.802 203.855C161.802 205.329 161.216 206.743 160.173 207.786C159.13 208.828 157.716 209.414 156.241 209.414Z" fill="#1C2E34"/>
<path d="M146.524 206.82H135.912V214.108H146.524V206.82Z" fill="#1C2E34"/>
<path d="M146.524 228.854H135.912V260.74H146.524V228.854Z" fill="#1C2E34"/>
<path d="M170.592 256.818H110.623V261.25H170.592V256.818Z" fill="#1C2E34"/>
<path d="M114.145 256.818H110.623V270.607H114.145V256.818Z" fill="#1C2E34"/>
<path d="M117.606 270.607C117.606 271.698 117.282 272.763 116.676 273.67C116.07 274.576 115.209 275.283 114.201 275.7C113.193 276.117 112.084 276.227 111.015 276.014C109.945 275.801 108.962 275.276 108.191 274.505C107.42 273.734 106.894 272.752 106.682 271.683C106.469 270.613 106.578 269.505 106.995 268.498C107.413 267.491 108.12 266.63 109.027 266.024C109.934 265.418 111 265.095 112.091 265.095C112.815 265.093 113.533 265.234 114.204 265.51C114.874 265.787 115.482 266.193 115.995 266.705C116.507 267.217 116.913 267.826 117.19 268.495C117.466 269.165 117.608 269.883 117.606 270.607Z" fill="#1C2E34"/>
<path d="M170.592 256.818H167.07V270.607H170.592V256.818Z" fill="#1C2E34"/>
<path d="M174.052 270.607C174.052 271.698 173.728 272.765 173.122 273.672C172.515 274.578 171.653 275.285 170.644 275.702C169.636 276.118 168.526 276.227 167.456 276.013C166.386 275.799 165.403 275.272 164.632 274.5C163.862 273.727 163.338 272.744 163.127 271.673C162.916 270.603 163.027 269.494 163.447 268.487C163.866 267.48 164.576 266.62 165.485 266.016C166.394 265.412 167.461 265.092 168.553 265.095C169.276 265.095 169.993 265.238 170.661 265.515C171.329 265.792 171.936 266.198 172.447 266.71C172.958 267.222 173.363 267.83 173.638 268.499C173.914 269.168 174.054 269.884 174.052 270.607Z" fill="#1C2E34"/>
<path d="M178.347 204.627C167.431 204.611 156.966 200.268 149.249 192.551C141.531 184.834 137.19 174.372 137.178 163.461V113.045C137.14 112.339 137.245 111.632 137.489 110.968C137.733 110.305 138.11 109.697 138.596 109.184C139.083 108.67 139.669 108.261 140.319 107.982C140.969 107.702 141.669 107.558 142.376 107.558C143.084 107.558 143.784 107.702 144.434 107.982C145.084 108.261 145.67 108.67 146.156 109.184C146.643 109.697 147.02 110.305 147.263 110.968C147.507 111.632 147.613 112.339 147.575 113.045V163.461C147.583 171.616 150.828 179.435 156.597 185.202C162.366 190.968 170.188 194.211 178.347 194.22C179.728 194.22 181.052 194.768 182.028 195.744C183.004 196.72 183.553 198.043 183.553 199.423C183.553 200.803 183.004 202.127 182.028 203.103C181.052 204.079 179.728 204.627 178.347 204.627Z" fill="#6D6D6D"/>
<path d="M142.384 107.841H86.8643L90.2319 148.56L88.6253 179.195L116.308 196.814L122.843 204.627H178.347L163.27 195.053L152.008 182.314L147.513 179.566L143.759 154.814L143.512 125.058L142.384 107.841Z" fill="#595959"/>
<path d="M122.842 204.627C111.923 204.615 101.455 200.274 93.7343 192.556C86.0134 184.839 81.6704 174.375 81.6581 163.461V113.045C81.6196 112.339 81.7255 111.632 81.9693 110.968C82.2131 110.305 82.5898 109.697 83.0763 109.184C83.5628 108.67 84.1489 108.261 84.7988 107.982C85.4487 107.702 86.1488 107.558 86.8564 107.558C87.5639 107.558 88.264 107.702 88.9139 107.982C89.5638 108.261 90.15 108.67 90.6364 109.184C91.1229 109.697 91.4996 110.305 91.7434 110.968C91.9873 111.632 92.0931 112.339 92.0546 113.045V163.461C92.0628 171.619 95.3096 179.44 101.082 185.207C106.855 190.974 114.681 194.216 122.842 194.22C124.223 194.22 125.547 194.768 126.524 195.744C127.5 196.72 128.048 198.043 128.048 199.423C128.048 200.803 127.5 202.127 126.524 203.103C125.547 204.079 124.223 204.627 122.842 204.627Z" fill="#777777"/>
<path d="M212.178 263.875L211.73 234.073L196.606 233.271L197.024 265.28L211.606 265.373L212.178 263.875Z" fill="#FFB0A0"/>
<path d="M194.907 259.011C194.907 259.011 207.42 264.153 213.29 256.046L239.058 271.765L191.03 271.457L194.907 259.011Z" fill="#0B181B"/>
<path d="M191.037 271.391L191.009 275.807L239.036 276.117L239.064 271.701L191.037 271.391Z" fill="white"/>
<path d="M212.981 262.887C213.124 262.837 213.248 262.746 213.337 262.624C214.443 261.137 215.778 259.834 217.291 258.764C217.383 258.709 217.462 258.636 217.524 258.549C217.586 258.462 217.629 258.363 217.651 258.259C217.673 258.154 217.673 258.046 217.651 257.942C217.629 257.838 217.585 257.739 217.523 257.652C217.39 257.476 217.197 257.354 216.98 257.312C216.764 257.269 216.539 257.308 216.349 257.421C214.664 258.593 213.182 260.032 211.962 261.682C211.895 261.767 211.847 261.864 211.82 261.968C211.793 262.072 211.788 262.181 211.805 262.287C211.823 262.393 211.862 262.494 211.921 262.584C211.98 262.674 212.057 262.751 212.147 262.81C212.269 262.889 212.409 262.938 212.555 262.952C212.7 262.965 212.847 262.943 212.981 262.887Z" fill="white"/>
<path d="M217.121 264.956C217.257 264.902 217.374 264.811 217.461 264.693C218.566 263.199 219.907 261.895 221.431 260.833C221.523 260.778 221.602 260.705 221.664 260.618C221.726 260.531 221.769 260.432 221.791 260.328C221.813 260.223 221.813 260.116 221.791 260.011C221.769 259.907 221.725 259.808 221.663 259.721C221.532 259.542 221.339 259.418 221.121 259.375C220.904 259.333 220.678 259.373 220.489 259.49C218.799 260.655 217.312 262.09 216.086 263.736C216.022 263.821 215.975 263.919 215.949 264.022C215.924 264.126 215.919 264.234 215.937 264.339C215.954 264.445 215.993 264.546 216.05 264.636C216.108 264.726 216.183 264.803 216.272 264.863C216.394 264.949 216.536 265.003 216.684 265.019C216.833 265.036 216.983 265.014 217.121 264.956Z" fill="white"/>
<path d="M221.246 267.025C221.386 266.97 221.508 266.88 221.601 266.762C222.708 265.275 224.042 263.972 225.556 262.902C225.648 262.846 225.728 262.771 225.79 262.683C225.852 262.595 225.895 262.495 225.917 262.389C225.938 262.283 225.938 262.174 225.916 262.069C225.894 261.963 225.85 261.863 225.788 261.775C225.657 261.595 225.463 261.472 225.244 261.432C225.025 261.392 224.8 261.437 224.614 261.559C222.931 262.727 221.449 264.161 220.226 265.805C220.16 265.889 220.111 265.987 220.084 266.091C220.057 266.195 220.052 266.304 220.07 266.41C220.087 266.516 220.127 266.617 220.186 266.707C220.244 266.797 220.322 266.874 220.412 266.932C220.533 267.015 220.672 267.066 220.817 267.082C220.963 267.099 221.11 267.079 221.246 267.025Z" fill="white"/>
<path d="M156.936 164.835L164.027 170.78C161.957 183.457 155.129 194.976 167.981 194.976H190.767V247.353L216.349 247.693L217.77 183.519C217.805 181.102 217.359 178.702 216.46 176.459C215.56 174.215 214.223 172.172 212.528 170.449C210.832 168.725 208.811 167.355 206.582 166.418C204.353 165.481 201.96 164.995 199.542 164.989L156.936 164.835Z" fill="#FFDD14"/>
<path d="M171.21 263.875L170.762 234.073L155.639 233.271L156.056 265.28L170.639 265.373L171.21 263.875Z" fill="#FFB0A0"/>
<path d="M153.939 259.011C153.939 259.011 166.452 264.153 172.323 256.046L198.09 271.765L150.062 271.457L153.939 259.011Z" fill="#0B181B"/>
<path d="M150.067 271.39L150.039 275.806L198.065 276.116L198.094 271.7L150.067 271.39Z" fill="white"/>
<path d="M172.014 262.887C172.156 262.837 172.28 262.746 172.369 262.624C173.475 261.137 174.81 259.834 176.324 258.764C176.415 258.709 176.494 258.636 176.556 258.549C176.618 258.462 176.661 258.363 176.683 258.259C176.705 258.154 176.705 258.046 176.683 257.942C176.661 257.838 176.617 257.739 176.555 257.652C176.423 257.476 176.229 257.354 176.013 257.312C175.796 257.269 175.571 257.308 175.381 257.421C173.696 258.593 172.214 260.032 170.994 261.682C170.927 261.767 170.879 261.864 170.852 261.968C170.825 262.072 170.82 262.181 170.837 262.287C170.855 262.393 170.894 262.494 170.953 262.584C171.012 262.674 171.089 262.751 171.179 262.81C171.302 262.889 171.442 262.938 171.587 262.952C171.732 262.965 171.879 262.943 172.014 262.887Z" fill="white"/>
<path d="M176.107 264.956C176.243 264.902 176.36 264.811 176.447 264.693C177.553 263.206 178.888 261.903 180.402 260.833C180.494 260.78 180.575 260.707 180.639 260.621C180.702 260.535 180.747 260.436 180.77 260.332C180.793 260.227 180.795 260.119 180.774 260.014C180.753 259.909 180.71 259.809 180.649 259.721C180.518 259.542 180.325 259.418 180.107 259.375C179.889 259.333 179.664 259.373 179.475 259.49C177.785 260.655 176.298 262.09 175.072 263.736C175.007 263.821 174.961 263.919 174.935 264.022C174.91 264.126 174.905 264.234 174.923 264.339C174.94 264.445 174.979 264.546 175.036 264.636C175.094 264.726 175.169 264.803 175.257 264.863C175.38 264.949 175.522 265.003 175.67 265.019C175.819 265.036 175.969 265.014 176.107 264.956Z" fill="white"/>
<path d="M180.278 267.025C180.418 266.97 180.54 266.88 180.634 266.762C181.74 265.275 183.075 263.972 184.588 262.902C184.68 262.846 184.76 262.771 184.822 262.683C184.884 262.595 184.927 262.495 184.949 262.389C184.971 262.283 184.97 262.174 184.948 262.069C184.926 261.963 184.882 261.863 184.82 261.775C184.69 261.595 184.495 261.472 184.276 261.432C184.058 261.392 183.832 261.437 183.646 261.559C181.963 262.727 180.481 264.161 179.259 265.805C179.192 265.889 179.143 265.987 179.116 266.091C179.089 266.195 179.085 266.304 179.102 266.41C179.119 266.516 179.159 266.617 179.218 266.707C179.277 266.797 179.354 266.874 179.444 266.932C179.565 267.015 179.704 267.066 179.85 267.082C179.995 267.099 180.142 267.079 180.278 267.025Z" fill="white"/>
<path d="M124.758 164.835L123.785 170.78C123.299 173.761 123.467 176.812 124.278 179.722C125.088 182.631 126.522 185.33 128.479 187.632C130.436 189.933 132.87 191.782 135.612 193.05C138.354 194.318 141.34 194.975 144.362 194.976H150.541V247.353L176.107 247.693L177.544 183.519C177.579 181.101 177.133 178.7 176.232 176.455C175.331 174.21 173.993 172.167 172.296 170.443C170.599 168.719 168.576 167.35 166.345 166.414C164.114 165.477 161.719 164.993 159.3 164.989L124.758 164.835Z" fill="#FFDD14"/>
<path d="M188.373 142.291L222.822 149.548L224.675 156.466L179.552 157.099L175.937 138.369L188.373 142.291Z" fill="#F9A498"/>
<path d="M217.585 149.147C217.585 149.147 224.629 144.87 231.612 146.661C236.246 147.834 240.788 152.25 240.433 156.991L212.395 156.636L217.585 149.147Z" fill="#F9A498"/>
<path d="M190.335 117.353L194.321 146.846C194.321 146.846 177.096 155.895 177.451 154.814C177.807 153.733 173.589 117.353 173.589 117.353H190.335Z" fill="#F9A498"/>
<path d="M174.949 93.0024C174.949 93.0024 187.585 94.9944 190.397 105.772C194.151 119.824 195.587 121.862 195.587 121.862L176.478 124.642L174.949 93.0024Z" fill="#0B181B"/>
<path d="M150.649 89.4201L174.948 93.0025C176.142 93.1788 177.233 93.7749 178.026 94.6835C178.818 95.592 179.261 96.7535 179.274 97.9591L179.845 155.57L125.638 155.74L122.039 105.479L124.047 98.654C124.515 97.1148 125.403 95.7369 126.612 94.6756C127.822 93.6142 129.303 92.9117 130.891 92.6473L150.649 89.4201Z" fill="#0B181B"/>
<path d="M134.738 121.661L124.588 147.881L108.939 134.261L115.011 115.392L134.738 121.661Z" fill="#FFB0A0"/>
<path d="M144.624 91.4583C144.624 91.4583 125.746 91.2885 121.066 96.8628C115.165 103.873 108.136 121.8 108.136 121.8L138.815 128.564L144.624 91.4583Z" fill="#0B181B"/>
<path d="M126.349 143.511L161.756 151.324L160.288 159.168L118.455 159.446C118.455 159.446 99.7323 155.74 108.939 134.339L126.349 143.511Z" fill="#FFB0A0"/>
<path d="M161.756 151.324C161.756 151.324 170.067 148.081 176.957 149.363C179.222 149.838 181.234 151.126 182.612 152.985C183.99 154.843 184.638 157.142 184.434 159.446L156.627 159.199L161.756 151.324Z" fill="#FFB0A0"/>
<path d="M126.349 143.511L117.605 142.291" stroke="#E98980" stroke-width="0.5" stroke-miterlimit="10"/>
<path d="M166.838 46.5244C166.838 46.5244 176.462 55.5729 166.977 58.8774L166.838 46.5244Z" fill="#0B181B"/>
<path d="M159.393 76.8355L159.887 89.6672C160.072 94.176 157.492 96.6775 153.182 96.8164C149.521 96.9091 145.458 95.2723 145.458 91.3194L145.567 71.0296L159.393 76.8355Z" fill="#FFB0A0"/>
<path d="M159.747 85.3745C159.747 85.3745 149.32 86.6561 145.613 75.0134C144.454 71.3539 159.361 75.523 159.361 75.523L159.747 85.3745Z" fill="#0B181B"/>
<path d="M155.685 80.7267C163.007 80.4487 168.831 74.2568 168.8 68.0649L168.661 55.1251C168.697 51.4495 167.308 47.9025 164.786 45.2281C162.263 42.5537 158.802 40.9597 155.129 40.7802C147.405 40.5486 139.681 46.7406 139.464 54.6773L139.696 64.7605C139.736 68.9851 141.434 73.0252 144.425 76.0112C147.415 78.9971 151.458 80.6904 155.685 80.7267Z" fill="#FFB0A0"/>
<path d="M161.092 64.5597L161.431 67.0458L159.624 67.1847" stroke="#0B181B" stroke-width="0.53" stroke-linecap="round" stroke-linejoin="round"/>
<path d="M152.935 56.9935C152.935 56.9935 155.932 56.623 156.025 57.8891C156.025 57.8891 156.025 58.7384 153.445 59.0163C150.865 59.2943 150.139 59.109 149.876 58.3215C149.614 57.534 151.545 57.1325 152.935 56.9935Z" fill="#0B181B"/>
<path d="M165.062 56.5766C165.062 56.5766 162.575 56.4068 162.42 57.6112C162.42 57.6112 162.42 58.4141 164.506 58.5068C166.591 58.5994 167.379 58.2906 167.595 57.6266C167.812 56.9626 166.252 56.5457 165.062 56.5766Z" fill="#0B181B"/>
<path d="M163.501 61.9038C163.51 62.1527 163.593 62.3934 163.738 62.5958C163.883 62.7981 164.085 62.9531 164.318 63.0414C164.551 63.1297 164.805 63.1473 165.048 63.0921C165.291 63.0369 165.512 62.9112 165.684 62.7309C165.856 62.5506 165.971 62.3236 166.015 62.0784C166.058 61.8331 166.028 61.5805 165.929 61.3521C165.829 61.1237 165.665 60.9298 165.455 60.7944C165.246 60.6591 165.002 60.5885 164.753 60.5913C164.584 60.5953 164.418 60.6325 164.264 60.7006C164.11 60.7687 163.971 60.8665 163.855 60.9884C163.739 61.1103 163.648 61.2539 163.587 61.411C163.526 61.568 163.497 61.7355 163.501 61.9038Z" fill="#0B181B"/>
<path d="M152.456 61.9656C152.437 62.1426 152.455 62.3217 152.509 62.4913C152.563 62.6609 152.653 62.8171 152.772 62.9497C152.89 63.0824 153.036 63.1885 153.199 63.2612C153.361 63.3338 153.537 63.3714 153.715 63.3714C153.894 63.3714 154.07 63.3338 154.232 63.2612C154.395 63.1885 154.54 63.0824 154.659 62.9497C154.778 62.8171 154.868 62.6609 154.922 62.4913C154.976 62.3217 154.994 62.1426 154.974 61.9656C154.974 61.6243 154.84 61.2967 154.6 61.0539C154.36 60.8111 154.034 60.6726 153.692 60.6685C153.358 60.6806 153.041 60.8231 152.81 61.0655C152.579 61.3078 152.452 61.6309 152.456 61.9656Z" fill="#0B181B"/>
<path d="M158.265 71.57L161.632 71.0914" stroke="#0B181B" stroke-width="0.53" stroke-linecap="round" stroke-linejoin="round"/>
<path d="M176.37 42.17L170.808 41.3825L174.052 39.3288C171.185 38.449 168.2 38.0116 165.201 38.0317C161.525 36.075 157.438 35.0167 153.275 34.9435C146.818 34.9435 141.303 38.3714 139.372 42.2163C138.589 42.1832 137.807 42.3056 137.072 42.5762C136.336 42.8468 135.662 43.2604 135.087 43.7931C134.513 44.3257 134.05 44.9669 133.724 45.6795C133.399 46.3922 133.218 47.1621 133.193 47.945C132.25 55.82 141.704 68.8061 141.704 68.8061L142.77 58.5222C148.64 58.1053 148.949 52.9325 148.455 49.5663C154.749 50.1477 161.092 49.888 167.317 48.7943C168.26 48.7064 169.179 48.4557 170.036 48.0531C173.404 46.9259 175.922 45.0729 176.37 42.17Z" fill="#0B181B"/>
<path d="M132.945 64.7605C132.882 66.1506 133.374 67.5089 134.313 68.5368C135.251 69.5647 136.56 70.178 137.95 70.2421C138.639 70.2564 139.323 70.1338 139.963 69.8815C140.603 69.6291 141.187 69.252 141.68 68.7721C142.173 68.2921 142.566 67.719 142.835 67.0859C143.104 66.4529 143.245 65.7726 143.249 65.0847C143.302 64.39 143.214 63.6918 142.99 63.0321C142.765 62.3725 142.41 61.7651 141.944 61.2467C141.478 60.7282 140.913 60.3094 140.281 60.0156C139.649 59.7218 138.964 59.559 138.267 59.537C137.57 59.5151 136.876 59.6345 136.227 59.888C135.578 60.1415 134.987 60.5239 134.489 61.0121C133.992 61.5002 133.599 62.084 133.333 62.7283C133.068 63.3725 132.936 64.0638 132.945 64.7605Z" fill="#FFB0A0"/>
<path d="M139.82 66.2583C139.82 66.2583 139.928 62.398 136.344 62.8921" stroke="#312220" stroke-width="0.56" stroke-linecap="round" stroke-linejoin="round"/>
<path d="M140.438 91.1032L150.649 89.4664L164.228 91.4738C164.228 91.4738 165.062 99.3951 153.584 99.7194C142.106 100.044 140.438 91.1032 140.438 91.1032Z" fill="#FFB0A0"/>
<path d="M202.137 130.339L206.957 133.798L241.159 104.954L324.423 59.0009L319.928 55.7428L262.817 73.284L202.137 130.339Z" fill="#AFAFAF"/>
<path d="M213.955 58.3987L200.391 125.722C200.25 126.404 200.263 127.109 200.432 127.785C200.6 128.461 200.919 129.09 201.365 129.626C201.81 130.162 202.37 130.59 203.004 130.879C203.638 131.169 204.329 131.311 205.026 131.297H302.611C303.675 131.298 304.707 130.934 305.534 130.265C306.361 129.596 306.933 128.662 307.153 127.622L321.581 60.298C321.732 59.6181 321.728 58.9131 321.568 58.2351C321.409 57.5572 321.099 56.9239 320.661 56.3823C320.223 55.8407 319.669 55.4048 319.039 55.107C318.409 54.8091 317.72 54.657 317.024 54.6619H218.512C217.437 54.6596 216.394 55.0311 215.562 55.7128C214.731 56.3945 214.163 57.3441 213.955 58.3987Z" fill="#AFAFAF"/>
<path d="M218.358 61.5796L204.794 128.903C204.652 129.585 204.666 130.29 204.835 130.966C205.003 131.642 205.322 132.271 205.767 132.807C206.213 133.343 206.773 133.771 207.407 134.06C208.041 134.35 208.732 134.492 209.429 134.478H306.998C308.067 134.482 309.105 134.117 309.935 133.445C310.766 132.772 311.338 131.833 311.555 130.787L325.953 63.4789C326.105 62.7926 326.1 62.0806 325.936 61.3969C325.773 60.7131 325.456 60.0756 325.009 59.5325C324.563 58.9894 323.998 58.555 323.359 58.2622C322.719 57.9695 322.022 57.8261 321.319 57.8428H222.915C221.839 57.8404 220.797 58.212 219.965 58.8937C219.134 59.5754 218.566 60.525 218.358 61.5796Z" fill="#C4C4C4"/>
<path d="M253.872 116.674L252.049 134.478H259.974L253.872 116.674Z" fill="#AFAFAF"/>
<path d="M253.872 116.303L261.951 156.172H291.411L277.6 116.303H253.872Z" fill="#DDDDDD"/>
<path d="M269.351 92.1686C272.96 92.1686 275.885 89.2443 275.885 85.637C275.885 82.0297 272.96 79.1053 269.351 79.1053C265.742 79.1053 262.816 82.0297 262.816 85.637C262.816 89.2443 265.742 92.1686 269.351 92.1686Z" fill="white"/>
<path d="M308.836 152.451H239.444C239.191 152.451 238.941 152.501 238.707 152.598C238.474 152.696 238.262 152.838 238.084 153.017C237.906 153.197 237.765 153.41 237.67 153.644C237.574 153.878 237.526 154.129 237.528 154.381C237.526 154.634 237.574 154.885 237.67 155.119C237.765 155.353 237.906 155.566 238.084 155.745C238.262 155.925 238.474 156.067 238.707 156.164C238.941 156.261 239.191 156.311 239.444 156.311H308.883C309.395 156.311 309.886 156.108 310.248 155.746C310.61 155.384 310.814 154.893 310.814 154.381C310.814 154.124 310.762 153.869 310.662 153.632C310.562 153.395 310.416 153.18 310.232 153C310.048 152.82 309.829 152.679 309.59 152.585C309.35 152.49 309.094 152.445 308.836 152.451Z" fill="#C4C4C4"/>
<path d="M222.266 152.451H185.499C184.987 152.451 184.496 152.655 184.134 153.016C183.772 153.378 183.568 153.869 183.568 154.381C183.568 154.893 183.772 155.384 184.134 155.746C184.496 156.108 184.987 156.311 185.499 156.311H222.266C222.778 156.311 223.269 156.108 223.631 155.746C223.993 155.384 224.197 154.893 224.197 154.381C224.197 153.869 223.993 153.378 223.631 153.016C223.269 152.655 222.778 152.451 222.266 152.451Z" fill="#C4C4C4"/>
<path d="M176.818 162.442V276.104" stroke="#55382E" stroke-width="1.16" stroke-miterlimit="10"/>
<path d="M104.737 162.442V276.104" stroke="#55382E" stroke-width="1.16" stroke-miterlimit="10"/>
<path d="M351.751 162.442V276.104" stroke="#55382E" stroke-width="1.16" stroke-miterlimit="10"/>
<path d="M279.67 162.442V276.104" stroke="#55382E" stroke-width="1.16" stroke-miterlimit="10"/>
<path d="M156.164 156.157H87.9766V165.298H156.164V156.157Z" fill="#DDDDDD"/>
<path d="M370.273 156.157H156.04V165.298H370.273V156.157Z" fill="white"/>
<path d="M405 276.104H25.7676" stroke="#55382E" stroke-width="1.16" stroke-miterlimit="10"/>
</svg>
