<svg width="456" height="269" viewBox="0 0 456 269" fill="none" xmlns="http://www.w3.org/2000/svg">
<path d="M326.605 199.367H278.901C277.568 199.363 276.291 198.83 275.35 197.885C274.409 196.94 273.881 195.661 273.881 194.327C273.881 192.993 274.409 191.714 275.35 190.769C276.291 189.825 277.568 189.292 278.901 189.288H326.605C327.938 189.292 329.215 189.825 330.156 190.769C331.097 191.714 331.625 192.993 331.625 194.327C331.625 195.661 331.097 196.94 330.156 197.885C329.215 198.83 327.938 199.363 326.605 199.367Z" fill="#595959"/>
<path d="M359.421 199.367H303.127C302.224 199.354 301.336 199.132 300.533 198.718C299.731 198.304 299.035 197.709 298.502 196.98C297.968 196.251 297.611 195.407 297.459 194.517C297.306 193.626 297.363 192.712 297.624 191.846L324.5 99.1372C324.836 97.9336 325.555 96.8725 326.549 96.115C327.542 95.3575 328.755 94.9451 330.003 94.9402H386.298C387.2 94.9499 388.088 95.1697 388.891 95.5821C389.694 95.9945 390.389 96.5882 390.923 97.3163C391.457 98.0444 391.815 98.8868 391.967 99.777C392.119 100.667 392.063 101.581 391.801 102.445L364.924 195.17C364.584 196.371 363.864 197.429 362.871 198.186C361.879 198.942 360.669 199.357 359.421 199.367Z" fill="#595959"/>
<path d="M351.673 199.367H302.644C301.748 199.352 300.867 199.13 300.071 198.72C299.274 198.309 298.583 197.72 298.05 196.999C297.518 196.277 297.159 195.443 297.001 194.56C296.843 193.677 296.891 192.77 297.14 191.909L324.017 99.1997C324.353 97.9961 325.072 96.935 326.065 96.1775C327.059 95.42 328.272 95.0076 329.52 95.0027H378.55C379.452 95.0124 380.34 95.2322 381.143 95.6446C381.946 96.057 382.641 96.6507 383.175 97.3788C383.709 98.1069 384.067 98.9493 384.219 99.8395C384.371 100.73 384.314 101.643 384.053 102.507L357.176 195.232C356.825 196.422 356.1 197.466 355.108 198.211C354.117 198.955 352.913 199.361 351.673 199.367Z" fill="white"/>
<path d="M359.406 199.367H299.822C298.489 199.363 297.213 198.83 296.272 197.885C295.331 196.94 294.802 195.661 294.802 194.327C294.802 192.993 295.331 191.714 296.272 190.769C297.213 189.825 298.489 189.292 299.822 189.288H359.406C360.739 189.292 362.016 189.825 362.957 190.769C363.898 191.714 364.426 192.993 364.426 194.327C364.426 195.661 363.898 196.94 362.957 197.885C362.016 198.83 360.739 199.363 359.406 199.367Z" fill="#595959"/>
<path d="M288.161 90.4937C279.335 103.044 271.733 116.414 265.462 130.42C264.933 131.616 264.713 132.926 264.822 134.229C264.931 135.532 265.366 136.787 266.086 137.878C269.36 142.871 277.903 141.716 281.208 137.082C281.208 137.082 306.37 102.211 305.294 100.791C305.045 100.51 288.161 90.4937 288.161 90.4937Z" fill="#FCF2D4"/>
<path d="M272.571 124.132L239.599 110.855L236.746 128.127L269.952 140.764C271.147 141.232 272.453 141.341 273.709 141.076C275.847 140.582 277.715 139.289 278.932 137.462C280.149 135.635 280.623 133.412 280.257 131.247C279.946 129.376 279.022 127.661 277.63 126.373C276.239 125.085 274.459 124.297 272.571 124.132Z" fill="#FCF2D4"/>
<path d="M313.884 86.2966L291.045 89.2299C289.937 89.3745 288.927 89.9422 288.227 90.8145C287.527 91.6867 287.19 92.796 287.288 93.9106L302.036 157.958L351.035 157.833L344.097 94.129C344.164 93.5612 344.119 92.9856 343.963 92.4355C343.807 91.8853 343.544 91.3714 343.189 90.9234C342.834 90.4753 342.394 90.1019 341.895 89.8246C341.395 89.5474 340.845 89.3718 340.278 89.3079L313.884 86.2966Z" fill="#FCF2D4"/>
<path d="M293.757 120.591C293.757 119.826 289.657 104.255 289.657 104.255" stroke="black" stroke-width="0.84" stroke-miterlimit="10"/>
<path d="M305.231 150.282H265.743V145.819H305.231C305.524 145.819 305.813 145.877 306.082 145.99C306.352 146.102 306.597 146.266 306.802 146.474C307.008 146.681 307.171 146.927 307.281 147.198C307.392 147.469 307.447 147.758 307.445 148.051C307.447 148.343 307.392 148.633 307.281 148.903C307.171 149.174 307.008 149.42 306.802 149.627C306.597 149.835 306.352 149.999 306.082 150.112C305.813 150.224 305.524 150.282 305.231 150.282Z" fill="#061418"/>
<path d="M270.934 150.282H214.25C212.784 150.281 211.357 149.801 210.189 148.914C209.021 148.026 208.175 146.781 207.78 145.367L197.585 108.686C197.373 107.93 197.339 107.135 197.485 106.363C197.632 105.592 197.955 104.865 198.429 104.239C198.903 103.614 199.516 103.106 200.218 102.757C200.921 102.408 201.695 102.226 202.48 102.227H254.908C255.886 102.226 256.836 102.551 257.609 103.15C258.382 103.749 258.935 104.587 259.18 105.534L270.934 150.282Z" fill="#1C2E34"/>
<path d="M236.964 128.314C236.964 129.295 236.673 130.254 236.128 131.07C235.584 131.886 234.809 132.522 233.904 132.898C232.998 133.273 232.001 133.371 231.039 133.18C230.078 132.989 229.194 132.516 228.501 131.822C227.808 131.128 227.335 130.244 227.144 129.282C226.953 128.319 227.051 127.322 227.426 126.415C227.801 125.508 228.437 124.734 229.252 124.188C230.067 123.643 231.026 123.352 232.006 123.352C232.658 123.35 233.304 123.477 233.906 123.726C234.508 123.974 235.056 124.34 235.516 124.801C235.977 125.262 236.342 125.81 236.591 126.413C236.839 127.016 236.966 127.662 236.964 128.314Z" fill="white"/>
<path d="M324.61 101.696C332.502 117.081 341.354 131.953 351.112 146.225C352.671 148.441 356.413 149.548 359.141 149.439C365.283 149.174 367.887 142.543 365.564 137.145C365.564 137.145 345.89 91.6482 343.162 90.8993C342.71 90.79 324.61 101.696 324.61 101.696Z" fill="#FCF2D4"/>
<path d="M310.392 140.608L321.086 139.781L320.743 150.5L311.483 150.485L310.392 140.608Z" fill="#C35F54"/>
<path d="M311.172 140.608C311.172 140.608 286.649 131.138 289.346 150.485H312.886L311.172 140.608Z" fill="#C35F54"/>
<path d="M356.459 132.838L318.031 134.009L318.779 151.171L358.736 150.329C360.065 150.15 361.336 149.671 362.453 148.928C363.57 148.185 364.503 147.197 365.182 146.039C365.861 144.882 366.268 143.584 366.372 142.246C366.476 140.908 366.274 139.563 365.782 138.315C365.051 136.5 363.739 134.978 362.053 133.988C360.366 132.997 358.4 132.593 356.459 132.838Z" fill="#FCF2D4"/>
<path d="M332.015 111.198L342.195 133.275L317.999 134.009L317.984 139.781" stroke="black" stroke-width="0.84" stroke-miterlimit="10"/>
<path d="M342.179 133.275L347.558 135.912" stroke="black" stroke-width="0.84" stroke-miterlimit="10"/>
<path d="M298.107 60.5995C298.222 61.5464 298.056 62.5062 297.629 63.3589C297.202 64.2117 296.533 64.9196 295.707 65.3942C294.88 65.8688 293.932 66.089 292.981 66.0274C292.03 65.9657 291.118 65.6248 290.359 65.0474C289.601 64.4699 289.029 63.6816 288.715 62.7808C288.402 61.88 288.361 60.9067 288.597 59.9826C288.833 59.0585 289.336 58.2246 290.043 57.5851C290.751 56.9456 291.63 56.5288 292.573 56.3869C293.213 56.2969 293.865 56.3347 294.49 56.4981C295.116 56.6615 295.703 56.9473 296.217 57.3389C296.732 57.7306 297.164 58.2204 297.488 58.78C297.812 59.3396 298.023 59.958 298.107 60.5995Z" fill="#0B181B"/>
<path d="M304.92 73.9239L306.058 87.3263C306.448 92.007 309.457 94.3006 313.946 93.8793C317.766 93.5205 321.819 91.3049 321.289 87.1703L318.53 66.1696L304.92 73.9239Z" fill="#C35F54"/>
<path d="M308.132 78.1521C300.477 78.823 293.649 73.1282 292.869 66.6844L291.31 53.2196C290.794 49.405 291.776 45.5387 294.05 42.4339C296.323 39.3291 299.711 37.2277 303.501 36.5719C311.452 35.3237 320.307 40.7689 321.554 49.0537L322.63 59.5697C323.109 63.9471 321.862 68.3389 319.154 71.8097C316.446 75.2805 312.491 77.5562 308.132 78.1521Z" fill="#C35F54"/>
<path d="M300.43 61.676L300.383 64.6873L302.285 64.5937" stroke="#312220" stroke-width="0.58" stroke-linecap="round" stroke-linejoin="round"/>
<path d="M308.116 53.5629C308.116 53.5629 304.998 53.5629 304.998 54.8735C304.998 54.8735 305.076 55.7628 307.82 55.716C310.564 55.6692 311.265 55.3884 311.437 54.5302C311.608 53.6721 309.581 53.4381 308.116 53.5629Z" fill="#0B181B"/>
<path d="M295.254 54.265C295.254 54.265 297.827 53.7814 298.138 54.9983C298.138 54.9983 298.325 55.8253 296.081 56.1997C293.836 56.5742 293.072 56.3557 292.807 55.6848C292.542 55.0139 294.038 54.3898 295.254 54.265Z" fill="#0B181B"/>
<path d="M305.434 59.4917C306.02 59.0499 306.735 58.811 307.469 58.811C308.203 58.811 308.917 59.0499 309.503 59.4917" stroke="#312220" stroke-width="0.58" stroke-linecap="round" stroke-linejoin="round"/>
<path d="M297.764 60.1627C297.764 60.1627 296.33 58.6024 294.319 60.4747" stroke="#312220" stroke-width="0.58" stroke-linecap="round" stroke-linejoin="round"/>
<path d="M313.853 42.298C313.853 42.298 310.267 46.9787 317.407 52.5175C317.407 52.5175 316.207 64.0944 314.632 67.0433C314.632 67.0433 300.149 64.0788 293.352 68.8219C293.352 68.8219 293.586 78.9323 305.496 79.4159C321.336 80.0556 323.004 63.9384 323.004 63.9384L319.699 56.1372L325.108 56.8706C325.108 56.8706 336.021 40.2697 318.966 40.2697L313.853 42.298Z" fill="#0B181B"/>
<path d="M328.492 58.2279C328.604 58.8703 328.588 59.5285 328.446 60.1648C328.303 60.8012 328.037 61.4032 327.662 61.9364C327.287 62.4697 326.811 62.9237 326.26 63.2726C325.71 63.6215 325.096 63.8583 324.454 63.9696C323.815 64.0597 323.164 64.0225 322.54 63.86C321.915 63.6976 321.329 63.4132 320.814 63.0231C320.3 62.6331 319.868 62.1451 319.543 61.5872C319.217 61.0293 319.006 60.4126 318.92 59.7726C318.817 59.1435 318.84 58.5005 318.986 57.8801C319.131 57.2598 319.398 56.6743 319.77 56.1571C320.142 55.6399 320.612 55.201 321.154 54.8657C321.695 54.5303 322.298 54.305 322.926 54.2025C323.555 54.1001 324.197 54.1225 324.817 54.2686C325.437 54.4147 326.022 54.6815 326.539 55.0538C327.055 55.4262 327.494 55.8967 327.829 56.4387C328.164 56.9806 328.389 57.5833 328.492 58.2123V58.2279Z" fill="#C35F54"/>
<path d="M322.24 60.4279C322.24 60.4279 321.694 56.8394 325.109 56.8862" stroke="#312220" stroke-width="0.52" stroke-linecap="round" stroke-linejoin="round"/>
<path d="M314.57 43.0157C307.495 43.4556 300.402 43.5129 293.321 43.1874C293.321 43.1874 285.432 40.2229 288.644 35.3862C291.232 31.5948 297.499 34.6841 297.499 34.6841C297.499 34.6841 297.39 30.7835 300.149 29.7069C303.438 28.4432 313.073 27.4134 321.273 40.4882L314.57 43.0157Z" fill="#0B181B"/>
<path d="M305.918 87.3731L301.693 87.9036C301.693 87.9036 299.807 94.987 309.613 95.7047C319.839 96.4381 323.877 92.6623 325.841 87.6071L314.586 85.3916L305.918 87.3731Z" fill="#C35F54"/>
<path d="M267.083 254.084H281.504V234.566H267.083V254.084Z" fill="#C35F54"/>
<path d="M313.26 157.88L314.274 164.121C314.782 167.246 314.606 170.443 313.757 173.493C312.908 176.543 311.407 179.371 309.358 181.783C307.309 184.194 304.76 186.131 301.889 187.459C299.017 188.788 295.892 189.475 292.729 189.475H286.29V244.38L259.523 244.738L257.964 177.477C257.914 174.936 258.371 172.411 259.307 170.049C260.243 167.687 261.64 165.535 263.417 163.719C265.193 161.904 267.313 160.46 269.653 159.474C271.993 158.487 274.506 157.977 277.045 157.974L313.26 157.88Z" fill="black"/>
<path d="M280.616 252.43C277.233 253.351 269.453 255.738 265.852 250.511L241.485 263.68L284.497 263.399L282.58 253.679C282.544 253.462 282.463 253.255 282.342 253.071C282.221 252.888 282.063 252.732 281.877 252.614C281.692 252.496 281.483 252.419 281.266 252.387C281.049 252.356 280.827 252.37 280.616 252.43Z" fill="#0B181B"/>
<path d="M241.506 267.477L284.518 267.192L284.493 263.463L241.482 263.748L241.506 267.477Z" fill="white"/>
<path d="M266.101 256.284C265.992 256.234 265.896 256.16 265.821 256.066C264.956 254.824 263.904 253.724 262.703 252.805C262.629 252.756 262.566 252.692 262.516 252.619C262.467 252.545 262.433 252.462 262.415 252.375C262.398 252.289 262.398 252.199 262.415 252.112C262.432 252.025 262.466 251.942 262.516 251.869C262.565 251.795 262.628 251.731 262.702 251.682C262.775 251.633 262.858 251.598 262.945 251.581C263.031 251.564 263.121 251.564 263.208 251.581C263.295 251.598 263.377 251.632 263.451 251.681C264.814 252.67 266.005 253.877 266.974 255.254C267.072 255.373 267.125 255.52 267.127 255.674C267.129 255.827 267.078 255.976 266.983 256.096C266.889 256.216 266.756 256.3 266.607 256.335C266.458 256.369 266.301 256.351 266.164 256.284H266.101Z" fill="white"/>
<path d="M262.781 258.032C262.671 257.982 262.575 257.907 262.5 257.813C261.634 256.573 260.582 255.473 259.382 254.552C259.306 254.505 259.241 254.443 259.19 254.369C259.139 254.295 259.104 254.212 259.086 254.125C259.069 254.037 259.07 253.947 259.088 253.859C259.107 253.772 259.143 253.689 259.195 253.616C259.294 253.467 259.447 253.362 259.622 253.324C259.796 253.287 259.979 253.318 260.13 253.413C261.487 254.416 262.676 255.627 263.654 257.002C263.707 257.074 263.746 257.156 263.767 257.244C263.788 257.331 263.792 257.422 263.777 257.511C263.763 257.6 263.731 257.685 263.683 257.761C263.635 257.837 263.572 257.902 263.498 257.954C263.399 258.035 263.278 258.086 263.151 258.1C263.023 258.114 262.895 258.09 262.781 258.032Z" fill="white"/>
<path d="M259.476 259.779C259.367 259.729 259.27 259.654 259.195 259.561C258.336 258.314 257.284 257.213 256.077 256.3C256.003 256.251 255.94 256.188 255.89 256.114C255.84 256.041 255.806 255.958 255.788 255.871C255.771 255.784 255.771 255.694 255.789 255.607C255.806 255.52 255.841 255.437 255.89 255.364C255.989 255.214 256.142 255.11 256.317 255.072C256.492 255.034 256.674 255.066 256.826 255.161C258.186 256.158 259.376 257.37 260.349 258.749C260.403 258.82 260.443 258.902 260.465 258.989C260.488 259.076 260.493 259.166 260.48 259.255C260.467 259.344 260.436 259.429 260.389 259.505C260.343 259.582 260.281 259.649 260.209 259.701C260.108 259.786 259.985 259.839 259.854 259.853C259.724 259.867 259.592 259.841 259.476 259.779Z" fill="white"/>
<path d="M304.857 253.928H319.278V234.41H304.857V253.928Z" fill="#C35F54"/>
<path d="M318.171 251.619C314.773 252.524 307.087 255.488 303.486 250.262L279.057 263.477L322.069 263.196L320.058 252.914C320.026 252.701 319.952 252.497 319.838 252.315C319.724 252.133 319.574 251.976 319.397 251.854C319.22 251.733 319.02 251.649 318.809 251.608C318.598 251.568 318.381 251.572 318.171 251.619Z" fill="#0B181B"/>
<path d="M279.127 267.228L322.138 266.942L322.113 263.214L279.102 263.499L279.127 267.228Z" fill="white"/>
<path d="M303.735 256.034C303.625 255.985 303.529 255.91 303.454 255.816C302.595 254.57 301.543 253.469 300.336 252.555C300.262 252.506 300.198 252.443 300.149 252.37C300.099 252.296 300.065 252.213 300.047 252.126C300.03 252.039 300.03 251.949 300.047 251.862C300.065 251.775 300.099 251.693 300.149 251.619C300.251 251.469 300.406 251.364 300.584 251.326C300.761 251.288 300.946 251.32 301.1 251.416C302.457 252.418 303.646 253.629 304.623 255.005C304.728 255.152 304.77 255.334 304.741 255.513C304.711 255.691 304.613 255.85 304.467 255.956C304.367 256.042 304.244 256.094 304.113 256.108C303.982 256.122 303.851 256.097 303.735 256.034Z" fill="white"/>
<path d="M300.43 257.782C300.316 257.733 300.215 257.658 300.134 257.564C299.273 256.319 298.221 255.218 297.016 254.303C296.888 254.194 296.804 254.043 296.78 253.877C296.756 253.711 296.794 253.541 296.886 253.401C296.978 253.261 297.118 253.159 297.28 253.116C297.442 253.072 297.614 253.089 297.764 253.164C299.13 254.155 300.321 255.368 301.288 256.752C301.341 256.824 301.38 256.907 301.401 256.994C301.422 257.082 301.426 257.172 301.411 257.261C301.397 257.35 301.365 257.435 301.317 257.511C301.269 257.587 301.206 257.653 301.132 257.704C301.036 257.786 300.918 257.838 300.793 257.852C300.668 257.866 300.541 257.841 300.43 257.782Z" fill="white"/>
<path d="M297.109 259.529C296.996 259.479 296.899 259.398 296.828 259.295C295.967 258.056 294.914 256.96 293.711 256.05C293.632 256.002 293.563 255.938 293.51 255.863C293.456 255.787 293.418 255.702 293.398 255.611C293.378 255.521 293.377 255.427 293.394 255.336C293.412 255.245 293.447 255.159 293.499 255.082C293.55 255.005 293.617 254.939 293.694 254.889C293.772 254.838 293.859 254.804 293.95 254.788C294.041 254.772 294.135 254.775 294.225 254.796C294.315 254.817 294.4 254.856 294.474 254.911C295.835 255.909 297.025 257.121 297.998 258.5C298.084 258.621 298.128 258.768 298.124 258.917C298.12 259.067 298.067 259.21 297.973 259.327C297.88 259.443 297.751 259.526 297.606 259.563C297.462 259.599 297.309 259.587 297.171 259.529H297.109Z" fill="white"/>
<path d="M351.034 157.88L352.048 164.121C352.554 167.244 352.375 170.441 351.525 173.488C350.675 176.536 349.174 179.363 347.125 181.772C345.076 184.182 342.528 186.117 339.658 187.445C336.788 188.772 333.664 189.459 330.503 189.459H324.064V244.364L297.297 244.723L295.738 177.461C295.688 174.912 296.147 172.38 297.089 170.011C298.031 167.643 299.437 165.487 301.223 163.67C303.01 161.853 305.141 160.412 307.492 159.431C309.843 158.45 312.366 157.949 314.913 157.958L351.034 157.88Z" fill="black"/>
<path d="M295.535 189.288V176.463C295.518 171.442 297.494 166.62 301.028 163.056C304.563 159.493 309.366 157.48 314.383 157.459H319.153" stroke="#55382C" stroke-width="0.84" stroke-miterlimit="10"/>
<path d="M233.94 268.657L195.527 154.448L164.628 267.268" stroke="#55382E" stroke-width="1.15" stroke-miterlimit="10"/>
<path d="M395.372 268.657L356.974 154.448L326.075 267.268" stroke="#55382E" stroke-width="1.15" stroke-miterlimit="10"/>
<path d="M412.193 150.297H139.326V158.036H412.193V150.297Z" fill="white"/>
<path d="M181.761 49.4282L246.318 49.4282C248.117 49.4282 249.576 47.9683 249.576 46.1673V24.6361C249.576 22.8352 248.117 21.3752 246.318 21.3752L181.761 21.3752C179.961 21.3752 178.503 22.8352 178.503 24.6361V46.1673C178.503 47.9683 179.961 49.4282 181.761 49.4282Z" fill="white"/>
<path d="M237.073 32.1252H189.852" stroke="#020202" stroke-width="0.98" stroke-linecap="round" stroke-linejoin="round"/>
<path d="M206.174 39.5831H190.008" stroke="#020202" stroke-width="0.98" stroke-linecap="round" stroke-linejoin="round"/>
<path d="M239.599 45.6837V58.3684L223.432 45.6837H239.599Z" fill="white"/>
<path d="M128.148 67.215L138.063 106.439L157.456 140L150.768 145.648L123.284 111.198L112.309 79.4628L128.148 67.215Z" fill="#F9B0A3"/>
<path d="M157.457 140L174.605 145.086C176.164 145.554 177.723 146.225 178.284 147.832C178.494 148.644 178.4 149.504 178.019 150.25C177.686 150.962 177.124 151.54 176.423 151.894C175.722 152.247 174.923 152.356 174.153 152.201L159.779 150.328L161.931 154.042C162.155 154.362 162.275 154.743 162.275 155.134C162.275 155.525 162.155 155.906 161.931 156.226C161.641 156.616 161.213 156.88 160.735 156.964C160.256 157.048 159.764 156.946 159.359 156.679L154.339 153.371C152.966 152.462 151.996 151.06 151.626 149.455L150.769 145.648L152.78 140H157.457Z" fill="#F9B0A3"/>
<path d="M129.878 60.1938L136.535 84.2995L115.504 93.8949L122.114 74.2516L129.878 60.1938Z" fill="#FFDD14"/>
<path d="M104.326 48.3672C104.326 48.3672 84.0598 40.9249 72.4142 62.2533C60.7687 83.5817 51.3213 129.967 51.3213 129.967L103.547 134.336L124.016 74.5947C126.589 69.0871 133.012 61.9412 128.459 57.9158C125.88 55.7424 122.866 54.1465 119.62 53.2351L104.326 48.3672Z" fill="#FFDD14"/>
<path d="M117.749 92.8651L123.689 75.5621" stroke="black" stroke-width="1.02" stroke-miterlimit="10"/>
<path d="M113.229 102.133L91.9798 57.167L75.5015 81.4598L98.699 113.273C99.7291 114.685 101.092 115.821 102.667 116.577C104.242 117.334 105.98 117.689 107.725 117.61L151.969 115.613L157.706 107.906L113.229 102.133Z" fill="#FFC1B2"/>
<path d="M157.706 107.906L176.881 109.029L184.676 111.666C185.096 111.803 185.446 112.097 185.653 112.487C185.859 112.877 185.906 113.333 185.783 113.757C185.659 114.189 185.371 114.555 184.981 114.777C184.59 114.998 184.128 115.058 183.694 114.943L175.977 112.867L170.536 112.446L172.875 114.552C173.993 115.559 174.79 116.872 175.167 118.328L175.494 119.592C175.714 120.436 175.594 121.333 175.159 122.089C174.725 122.845 174.011 123.399 173.171 123.633L169.398 124.694C168.612 124.92 167.769 124.848 167.033 124.491C166.296 124.134 165.717 123.517 165.407 122.759L164.223 119.873L160.575 118.016C158.865 118.422 157.085 118.417 155.377 118.003C153.67 117.588 152.086 116.774 150.753 115.629C146.731 112.243 151.221 111.245 151.642 111.058C152.063 110.87 157.706 107.906 157.706 107.906Z" fill="#FFC1B2"/>
<path d="M94.1311 53.8593L112.309 85.0015L84.0445 105.066L69.6084 74.1735L94.1311 53.8593Z" fill="#FFDD14"/>
<path d="M76.1714 89.4794L84.7302 104.582L89.7345 100.978" stroke="black" stroke-width="1.02" stroke-miterlimit="10"/>
<path d="M106.665 88.9958L95.082 67.215" stroke="black" stroke-width="1.02" stroke-miterlimit="10"/>
<path d="M133.963 254.771L132.201 220.133L116.596 222.848L120.945 258.624L134.337 256.066L133.963 254.771Z" fill="#FFC1B2"/>
<path d="M118.997 251.759C118.997 251.759 130.128 256.44 135.381 248.904L162.43 263.056L115.536 263.149L118.997 251.759Z" fill="black"/>
<path d="M162.398 267.112L115.489 267.221L115.536 263.149L162.429 263.056L162.398 267.112Z" fill="white"/>
<path d="M135.085 255.192C135.211 255.141 135.319 255.054 135.397 254.942C136.388 253.578 137.581 252.373 138.936 251.369C139.018 251.316 139.088 251.247 139.143 251.166C139.197 251.084 139.235 250.993 139.254 250.897C139.273 250.801 139.272 250.703 139.253 250.607C139.233 250.511 139.194 250.42 139.139 250.34C139.023 250.179 138.849 250.07 138.654 250.035C138.459 250 138.258 250.042 138.094 250.152C136.583 251.24 135.261 252.568 134.181 254.084C134.122 254.162 134.079 254.251 134.056 254.346C134.033 254.441 134.029 254.54 134.045 254.636C134.061 254.733 134.097 254.825 134.149 254.907C134.202 254.989 134.271 255.059 134.353 255.114C134.457 255.191 134.58 255.238 134.708 255.252C134.837 255.266 134.967 255.245 135.085 255.192Z" fill="white"/>
<path d="M138.749 257.064C138.875 257.013 138.983 256.926 139.061 256.815C140.046 255.445 141.24 254.239 142.599 253.242C142.681 253.188 142.752 253.119 142.806 253.038C142.861 252.957 142.899 252.865 142.918 252.769C142.936 252.674 142.936 252.575 142.916 252.479C142.896 252.383 142.858 252.292 142.802 252.212C142.689 252.049 142.516 251.936 142.321 251.899C142.126 251.861 141.924 251.9 141.758 252.009C140.249 253.105 138.927 254.438 137.845 255.956C137.786 256.034 137.743 256.123 137.72 256.218C137.696 256.313 137.692 256.412 137.708 256.508C137.725 256.605 137.76 256.697 137.813 256.779C137.866 256.861 137.935 256.932 138.016 256.986C138.122 257.06 138.244 257.106 138.372 257.119C138.501 257.133 138.63 257.114 138.749 257.064Z" fill="white"/>
<path d="M142.444 258.999C142.566 258.942 142.674 258.857 142.756 258.749C143.734 257.374 144.929 256.168 146.294 255.176C146.376 255.123 146.446 255.053 146.501 254.972C146.556 254.891 146.594 254.8 146.612 254.704C146.631 254.608 146.631 254.509 146.611 254.414C146.591 254.318 146.552 254.227 146.497 254.147C146.383 253.983 146.211 253.871 146.016 253.833C145.821 253.795 145.619 253.835 145.453 253.944C143.942 255.031 142.62 256.359 141.54 257.875C141.48 257.955 141.437 258.045 141.414 258.141C141.39 258.237 141.386 258.337 141.402 258.435C141.418 258.532 141.454 258.626 141.507 258.709C141.56 258.793 141.629 258.865 141.711 258.921C141.817 258.995 141.939 259.04 142.067 259.054C142.195 259.068 142.325 259.049 142.444 258.999Z" fill="white"/>
<path d="M103.547 134.336L132.669 177.726C135.787 183.109 135.522 184.95 135.927 191.144L139.045 243.49L113.384 245.222L106.93 193.251L75.0805 141.981L73.5215 131.699L103.547 134.336Z" fill="white"/>
<path d="M63.6216 257.127L72.7884 221.319L57.1986 224.018L50.2456 257.127L62.9824 258.624L63.6216 257.127Z" fill="#FFC1B2"/>
<path d="M49.6377 251.759C49.6377 251.759 60.7843 256.44 66.0225 248.904L93.0863 263.056L46.1768 263.149L49.6377 251.759Z" fill="black"/>
<path d="M93.055 267.112L46.1455 267.221L46.1767 263.149L93.0862 263.056L93.055 267.112Z" fill="white"/>
<path d="M65.7422 255.192C65.8632 255.133 65.9696 255.047 66.054 254.942C67.0369 253.576 68.2255 252.371 69.5773 251.369C69.6604 251.317 69.7321 251.249 69.7882 251.168C69.8444 251.088 69.8838 250.997 69.9041 250.901C69.9245 250.805 69.9254 250.706 69.9067 250.609C69.8881 250.513 69.8503 250.421 69.7956 250.34C69.6796 250.179 69.5059 250.07 69.3111 250.035C69.1163 250 68.9155 250.042 68.7511 250.152C67.2332 251.236 65.9056 252.565 64.8224 254.084C64.7655 254.163 64.7248 254.252 64.7025 254.347C64.6803 254.441 64.6771 254.539 64.6931 254.635C64.709 254.731 64.7438 254.822 64.7955 254.905C64.8471 254.987 64.9146 255.058 64.9939 255.114C65.1013 255.19 65.2267 255.238 65.3578 255.252C65.4889 255.265 65.6214 255.245 65.7422 255.192Z" fill="white"/>
<path d="M69.421 257.064C69.5419 257.005 69.6484 256.92 69.7328 256.815C70.7148 255.443 71.9095 254.236 73.2717 253.242C73.3547 253.189 73.4264 253.121 73.4826 253.04C73.5387 252.96 73.5781 252.869 73.5985 252.773C73.6188 252.677 73.6197 252.578 73.601 252.481C73.5824 252.385 73.5446 252.293 73.4899 252.212C73.3763 252.049 73.2037 251.936 73.0087 251.899C72.8137 251.861 72.6117 251.9 72.4454 252.009C70.9298 253.102 69.6028 254.435 68.5168 255.956C68.4598 256.035 68.4191 256.124 68.3969 256.219C68.3747 256.313 68.3715 256.411 68.3874 256.507C68.4034 256.603 68.4382 256.695 68.4898 256.777C68.5415 256.859 68.6089 256.93 68.6883 256.986C68.795 257.057 68.9175 257.102 69.045 257.115C69.1726 257.129 69.3016 257.111 69.421 257.064Z" fill="white"/>
<path d="M73.1004 258.999C73.218 258.934 73.3235 258.85 73.4122 258.749C74.3841 257.374 75.5742 256.167 76.9355 255.176C77.0185 255.124 77.0902 255.056 77.1464 254.975C77.2025 254.895 77.2419 254.804 77.2623 254.708C77.2826 254.612 77.2835 254.512 77.2649 254.416C77.2462 254.32 77.2084 254.228 77.1537 254.147C77.0401 253.983 76.8675 253.871 76.6725 253.833C76.4775 253.795 76.2755 253.835 76.1092 253.944C74.5913 255.028 73.2637 256.356 72.1806 257.875C72.1232 257.955 72.0822 258.046 72.0598 258.142C72.0373 258.237 72.034 258.337 72.0499 258.434C72.0658 258.531 72.1007 258.624 72.1526 258.707C72.2044 258.791 72.2722 258.863 72.3521 258.921C72.4607 258.995 72.5858 259.04 72.7164 259.054C72.847 259.068 72.9789 259.049 73.1004 258.999Z" fill="white"/>
<path d="M89.9999 164.402L89.9531 158.27L98.3716 148.488" stroke="#E2E2E2" stroke-width="0.76" stroke-miterlimit="10"/>
<path d="M52.7867 130.077C52.7867 130.077 45.9116 144.712 54.5639 164.667C54.8913 165.432 55.2187 166.118 55.5616 166.773L59.0849 197.073L46.9717 246.002L73.6769 246.314L88.0974 203.267C88.651 201.111 88.9955 198.906 89.1264 196.683L88.8613 141.139L95.0972 133.603L52.7867 130.077Z" fill="white"/>
<path d="M139.98 17.1626C139.98 17.1626 145.749 29.2076 135.615 28.8488L139.98 17.1626Z" fill="#0B181B"/>
<path d="M128.678 31.782C128.309 32.7461 128.233 33.7973 128.457 34.8048C128.681 35.8122 129.197 36.7312 129.94 37.4473C130.683 38.1634 131.62 38.6448 132.634 38.8316C133.648 39.0184 134.695 38.9023 135.644 38.4978C136.593 38.0933 137.402 37.4182 137.97 36.5567C138.538 35.6953 138.84 34.6855 138.839 33.6533C138.837 32.6212 138.532 31.6123 137.962 30.7523C137.391 29.8924 136.581 29.2195 135.631 28.8176C134.98 28.5493 134.283 28.4133 133.58 28.4175C132.876 28.4216 132.181 28.5658 131.534 28.8418C130.886 29.1177 130.301 29.5198 129.81 30.0246C129.32 30.5294 128.935 31.1268 128.678 31.782Z" fill="#F1998A"/>
<path d="M121.865 42.9845L117.656 55.2791C116.19 59.6009 112.839 61.0208 108.739 59.5697C105.246 58.3372 101.973 55.3103 103.422 51.5501L110.937 32.5309L121.865 42.9845Z" fill="#FFC1B2"/>
<path d="M119.09 51.1757C119.09 51.1757 108.801 48.5857 109.549 36.2599C109.783 32.3593 122.317 41.7363 122.317 41.7363L119.09 51.1757Z" fill="#0B181B"/>
<path d="M116.923 45.2468C123.923 47.6651 131.671 43.9362 133.9 38.0853L138.577 25.8219C139.923 22.3636 139.881 18.5187 138.46 15.0906C137.04 11.6626 134.35 8.91665 130.954 7.4267C123.798 4.39985 114.226 7.4267 111.124 14.8066L107.663 24.4021C106.184 28.3989 106.325 32.8157 108.055 36.7101C109.785 40.6044 112.968 43.6679 116.923 45.2468Z" fill="#FFC1B2"/>
<path d="M127.976 31.8756L127.368 34.4968L125.606 33.9819" stroke="#0B181B" stroke-width="0.53" stroke-linecap="round" stroke-linejoin="round"/>
<path d="M124.375 19.2377C124.375 19.2377 127.337 19.9866 126.947 21.2036C126.947 21.2036 126.667 22.0149 124.11 21.3284C121.553 20.6419 120.992 20.2207 120.992 19.3625C120.992 18.5044 123.034 18.7229 124.375 19.2377Z" fill="#0B181B"/>
<path d="M135.943 23.7936C135.943 23.7936 133.666 22.7326 133.074 23.7936C133.074 23.7936 132.7 24.5269 134.727 25.3538C136.753 26.1807 137.502 26.1963 137.845 25.6502C138.188 25.1042 137.065 24.1992 135.943 23.7936Z" fill="#0B181B"/>
<path d="M131.188 30.409C131.064 30.73 131.072 31.0864 131.209 31.4016C131.346 31.7168 131.602 31.9655 131.92 32.0941C132.243 32.2094 132.598 32.1921 132.908 32.0458C133.217 31.8996 133.457 31.6364 133.573 31.314C133.646 31.1546 133.685 30.982 133.689 30.8067C133.692 30.6315 133.66 30.4573 133.594 30.2951C133.527 30.1329 133.428 29.9862 133.303 29.8639C133.177 29.7416 133.028 29.6464 132.864 29.5843C132.7 29.5222 132.525 29.4944 132.35 29.5026C132.175 29.5109 132.004 29.5551 131.847 29.6325C131.69 29.7098 131.55 29.8186 131.437 29.9522C131.323 30.0858 131.238 30.2413 131.188 30.409Z" fill="#0B181B"/>
<path d="M120.743 26.4303C120.629 26.7474 120.642 27.0961 120.778 27.4041C120.915 27.712 121.165 27.9556 121.476 28.0842C121.792 28.1666 122.127 28.1293 122.418 27.9793C122.708 27.8293 122.933 27.5773 123.049 27.2717C123.165 26.966 123.164 26.6282 123.046 26.3232C122.928 26.0181 122.702 25.7674 122.411 25.619C122.248 25.5602 122.076 25.5347 121.903 25.5438C121.73 25.5529 121.561 25.5966 121.406 25.6723C121.25 25.7479 121.112 25.8539 120.998 25.9841C120.884 26.1143 120.797 26.2661 120.743 26.4303Z" fill="#0B181B"/>
<path d="M129.395 29.6444C128.969 30.7515 128.88 31.9601 129.139 33.1177C129.399 34.2753 129.995 35.3301 130.852 36.1491C131.71 36.9681 132.791 37.5146 133.958 37.7197C135.126 37.9247 136.328 37.7792 137.413 37.3014C138.498 36.8236 139.417 36.0349 140.055 35.0349C140.693 34.0348 141.02 32.8682 140.997 31.6821C140.973 30.4959 140.598 29.3434 139.921 28.3699C139.243 27.3964 138.293 26.6455 137.19 26.2119C136.453 25.9245 135.666 25.7853 134.875 25.8023C134.085 25.8193 133.305 25.9921 132.581 26.3109C131.857 26.6297 131.203 27.0882 130.656 27.6602C130.11 28.2322 129.681 28.9065 129.395 29.6444V29.6444Z" stroke="white" stroke-width="0.49" stroke-miterlimit="10"/>
<path d="M119.698 21.3908C118.61 21.8649 117.687 22.6511 117.046 23.65C116.404 24.649 116.072 25.8158 116.093 27.0032C116.114 28.1905 116.486 29.3451 117.162 30.321C117.838 31.2969 118.788 32.0503 119.892 32.4861C120.996 32.9219 122.204 33.0204 123.363 32.7693C124.523 32.5182 125.583 31.9287 126.408 31.0753C127.233 30.2219 127.787 29.1428 127.999 27.9745C128.212 26.8062 128.074 25.601 127.602 24.5113C127.289 23.7865 126.835 23.1307 126.268 22.5814C125.701 22.0322 125.031 21.6003 124.297 21.3104C123.563 21.0206 122.779 20.8785 121.989 20.8923C121.2 20.9061 120.422 21.0755 119.698 21.3908V21.3908Z" stroke="white" stroke-width="0.49" stroke-miterlimit="10"/>
<path d="M116.518 24.7141L111.233 22.6702" stroke="white" stroke-width="0.49" stroke-miterlimit="10"/>
<path d="M127.259 30.1282L128.943 30.7835" stroke="white" stroke-width="0.49" stroke-miterlimit="10"/>
<path d="M120.665 35.3081C120.665 35.3081 121.943 37.8825 126.791 37.8825" stroke="#0B181B" stroke-width="0.53" stroke-linecap="round" stroke-linejoin="round"/>
<path d="M107.725 6.24094C108.353 4.79878 109.523 3.66235 110.982 3.07817C112.442 2.494 114.072 2.5092 115.52 3.12048C118.841 0.140429 125.326 -1.15457 131.375 1.2794C139.591 4.57149 145.406 11.9046 145.156 16.7725C144.907 21.6405 138.515 19.1441 138.515 19.1441C132.759 17.4781 127.11 15.4616 121.6 13.106C120.852 16.4605 118.732 21.4688 112.932 19.6902L108.255 29.0516C108.255 29.0516 103.968 13.2932 107.725 6.24094Z" fill="#0B181B"/>
<path d="M101.333 21.9525C100.772 23.2442 100.744 24.7055 101.255 26.0178C101.766 27.3302 102.775 28.387 104.061 28.958C104.705 29.2193 105.394 29.3506 106.089 29.3445C106.783 29.3384 107.47 29.1949 108.109 28.9223C108.747 28.6497 109.326 28.2534 109.812 27.7561C110.297 27.2588 110.679 26.6704 110.937 26.0247C111.493 24.7326 111.519 23.2729 111.009 21.9617C110.498 20.6506 109.492 19.5935 108.208 19.0193C107.565 18.758 106.876 18.6266 106.181 18.6328C105.487 18.6389 104.8 18.7824 104.161 19.055C103.522 19.3276 102.944 19.7239 102.458 20.2212C101.973 20.7185 101.591 21.3069 101.333 21.9525Z" fill="#FFC1B2"/>
<path d="M107.289 25.8843C107.289 25.8843 108.848 22.2801 105.231 21.4376" stroke="#312220" stroke-width="0.56" stroke-linecap="round" stroke-linejoin="round"/>
<path d="M100.211 47.3999L112.838 50.3487L121.6 53.8593C121.6 53.8593 119.09 62.4094 111.233 61.0051C96.7811 58.384 100.211 47.3999 100.211 47.3999Z" fill="#FFC1B2"/>
<path d="M456 268.095H0" stroke="#55382E" stroke-width="1.15" stroke-miterlimit="10"/>
</svg>
