<svg width="386" height="279" viewBox="0 0 386 279" fill="none" xmlns="http://www.w3.org/2000/svg">
<path d="M295.61 58.9027C295.699 56.4783 294.867 54.11 293.282 52.2722C291.697 50.4344 289.475 49.2627 287.062 48.9917C284.027 48.6948 280.99 49.5352 278.54 51.3498C276.09 53.1643 274.403 55.8236 273.805 58.8114C272.617 64.7032 271.809 75.1166 271.855 74.6446L295.458 76.1214L295.61 58.9027Z" fill="white"/>
<path d="M295.93 76.6695L276.259 74.9034C276.793 81.688 276.793 88.5041 276.259 95.2887C276.132 96.7238 276.305 98.1695 276.769 99.5337C277.232 100.898 277.975 102.151 278.95 103.212C279.925 104.274 281.11 105.12 282.431 105.698C283.752 106.277 285.178 106.573 286.62 106.57C289.31 106.572 291.896 105.53 293.831 103.664C295.767 101.798 296.902 99.2535 296.997 96.5676L295.93 76.6695Z" fill="#FFC1B2"/>
<path d="M242.629 70.184L284.944 89.2143C285.959 89.7902 286.847 90.5656 287.554 91.4939C288.261 92.4221 288.772 93.4839 289.057 94.6151C289.342 95.7463 289.394 96.9234 289.211 98.0754C289.028 99.2273 288.613 100.33 287.992 101.318C287.365 102.319 286.54 103.181 285.567 103.852C284.595 104.522 283.495 104.987 282.336 105.217C281.176 105.446 279.982 105.436 278.827 105.187C277.672 104.938 276.58 104.455 275.619 103.769L239.429 77.4003L242.629 70.184Z" fill="#FFC1B2"/>
<path d="M238.469 80.0645C240.134 80.6255 241.927 80.6808 243.624 80.2233C245.32 79.7659 246.842 78.8162 247.998 77.4944C249.154 76.1726 249.892 74.538 250.118 72.7974C250.344 71.0567 250.049 69.2881 249.269 67.7151C248.489 66.1422 247.26 64.8355 245.737 63.9604C244.215 63.0853 242.466 62.6809 240.713 62.7985C238.96 62.9161 237.282 63.5503 235.89 64.621C234.497 65.6917 233.454 67.1508 232.892 68.8138C232.519 69.9184 232.367 71.0856 232.445 72.2489C232.523 73.4122 232.83 74.5487 233.348 75.5935C233.866 76.6383 234.584 77.5709 235.463 78.3381C236.342 79.1052 237.363 79.6919 238.469 80.0645Z" fill="#FFC1B2"/>
<path d="M239.231 63.5157C239.231 63.5157 238.789 60.0445 243.3 61.2016C247.81 62.3586 251.863 65.7689 249.669 74.5076L239.231 63.5157Z" fill="#FFC1B2"/>
<path d="M252.625 50.0727L243.954 45.5054C243.838 45.4455 243.709 45.4111 243.578 45.4043C243.447 45.3975 243.316 45.4186 243.194 45.466C243.072 45.5135 242.961 45.5863 242.868 45.6797C242.776 45.7731 242.705 45.8849 242.659 46.0078L232.74 69.0726C232.629 69.3282 232.614 69.6153 232.698 69.881C232.782 70.1467 232.959 70.3732 233.197 70.5189L241.882 75.0861C241.999 75.146 242.127 75.1804 242.258 75.1872C242.389 75.194 242.52 75.1729 242.643 75.1255C242.765 75.078 242.876 75.0052 242.968 74.9118C243.06 74.8185 243.131 74.7066 243.177 74.5837L253.082 51.5037C253.195 51.2508 253.211 50.965 253.127 50.701C253.042 50.437 252.864 50.2133 252.625 50.0727Z" fill="#372C5F"/>
<path d="M254.301 50.9557L245.631 46.3884C245.514 46.3286 245.386 46.2942 245.255 46.2874C245.124 46.2806 244.993 46.3016 244.87 46.3491C244.748 46.3966 244.637 46.4694 244.545 46.5627C244.453 46.6561 244.381 46.7679 244.335 46.8908L234.416 69.9708C234.302 70.2238 234.286 70.5096 234.371 70.7736C234.455 71.0376 234.634 71.2613 234.873 71.4019L243.558 75.9692C243.675 76.029 243.803 76.0635 243.934 76.0703C244.065 76.077 244.196 76.056 244.319 76.0086C244.441 75.9611 244.552 75.8883 244.644 75.7949C244.736 75.7015 244.808 75.5897 244.854 75.4668L254.758 52.402C254.872 52.1468 254.889 51.8586 254.805 51.5921C254.72 51.3255 254.541 51.0991 254.301 50.9557Z" fill="#251641"/>
<path d="M253.173 53.1632L245.555 49.1135L237.463 67.9155L245.097 71.9652L253.173 53.1632Z" fill="#E7E7E7"/>
<path d="M245.555 49.1135L245.098 71.9652L253.174 53.1632L245.555 49.1135Z" fill="white"/>
<path d="M247.566 72.5589L245.387 64.9468C245.313 64.6769 245.316 64.3921 245.394 64.1236C245.472 63.855 245.622 63.6131 245.829 63.4243C246.135 63.1777 246.525 63.059 246.917 63.093C247.309 63.1271 247.672 63.3112 247.932 63.607L249.196 65.3578L247.566 72.5589Z" fill="#FFC1B2"/>
<path d="M246.85 66.2104C246.85 66.2104 243.177 71.9195 245.722 76.974L247.947 72.5285L246.85 66.2104Z" fill="#FFC1B2"/>
<path d="M259.482 266.135L273.272 266.075L276.106 247.455L262.331 247.516L259.482 266.135Z" fill="#FFC1B2"/>
<path d="M273.165 262.954C269.92 263.822 262.499 266.653 259.131 261.66L235.848 274.265L276.99 273.991L275.07 264.187C275.037 263.976 274.959 263.774 274.843 263.594C274.726 263.415 274.573 263.262 274.393 263.145C274.213 263.029 274.011 262.952 273.8 262.919C273.588 262.886 273.372 262.898 273.165 262.954Z" fill="black"/>
<path d="M235.85 277.522L276.945 277.25L276.921 273.688L235.826 273.96L235.85 277.522Z" fill="white"/>
<path d="M259.375 266.851C259.262 266.814 259.165 266.738 259.101 266.638C258.249 265.472 257.221 264.444 256.053 263.593C255.981 263.547 255.919 263.487 255.871 263.416C255.823 263.346 255.789 263.266 255.772 263.182C255.755 263.099 255.755 263.012 255.772 262.929C255.789 262.845 255.822 262.765 255.871 262.695C255.969 262.556 256.117 262.46 256.284 262.426C256.451 262.392 256.624 262.423 256.77 262.512C258.07 263.464 259.207 264.621 260.137 265.938C260.24 266.077 260.283 266.251 260.257 266.423C260.231 266.594 260.139 266.748 260 266.851C259.904 266.903 259.797 266.93 259.688 266.93C259.578 266.93 259.471 266.903 259.375 266.851Z" fill="white"/>
<path d="M256.206 268.526C256.099 268.477 256.005 268.404 255.931 268.313C255.079 267.146 254.051 266.119 252.884 265.268C252.742 265.172 252.643 265.024 252.609 264.856C252.575 264.688 252.608 264.513 252.701 264.37C252.747 264.298 252.807 264.236 252.878 264.187C252.949 264.139 253.028 264.106 253.112 264.089C253.196 264.071 253.282 264.071 253.366 264.088C253.45 264.105 253.529 264.139 253.6 264.187C254.909 265.129 256.048 266.288 256.968 267.612C257.018 267.68 257.054 267.757 257.075 267.839C257.095 267.921 257.099 268.006 257.086 268.09C257.074 268.173 257.045 268.254 257.001 268.326C256.957 268.398 256.899 268.461 256.83 268.511C256.736 268.565 256.629 268.595 256.52 268.597C256.411 268.6 256.303 268.575 256.206 268.526Z" fill="white"/>
<path d="M253.036 270.185C252.928 270.146 252.837 270.071 252.777 269.972C251.927 268.804 250.899 267.777 249.73 266.927C249.602 266.824 249.517 266.677 249.493 266.515C249.468 266.352 249.506 266.187 249.598 266.051C249.69 265.915 249.83 265.818 249.99 265.78C250.15 265.742 250.318 265.766 250.461 265.846C251.758 266.803 252.895 267.959 253.829 269.272C253.926 269.414 253.964 269.589 253.936 269.759C253.908 269.929 253.815 270.082 253.676 270.185C253.579 270.241 253.469 270.271 253.356 270.271C253.244 270.271 253.134 270.241 253.036 270.185Z" fill="white"/>
<path d="M281.714 94.5732C281.714 94.5732 276.152 106.935 266.903 162.078C257.653 217.22 256.404 254.245 256.404 254.245H284.944L309.69 100.343L303.336 94.3905L281.714 94.5732Z" fill="#FFDD14"/>
<path d="M319.015 248.81H305.225V267.43H319.015V248.81Z" fill="#FFC1B2"/>
<path d="M319.991 262.649C316.76 263.502 309.416 266.333 305.972 261.355L282.704 274.037L323.846 273.763L321.926 263.958C321.903 263.737 321.832 263.523 321.718 263.332C321.604 263.141 321.449 262.977 321.264 262.852C321.08 262.727 320.87 262.645 320.65 262.609C320.43 262.574 320.205 262.588 319.991 262.649Z" fill="black"/>
<path d="M282.707 277.528L323.802 277.256L323.778 273.694L282.683 273.966L282.707 277.528Z" fill="white"/>
<path d="M306.277 266.851C306.163 266.814 306.066 266.738 306.002 266.638C305.15 265.472 304.122 264.444 302.955 263.593C302.883 263.547 302.821 263.487 302.773 263.416C302.724 263.346 302.691 263.266 302.673 263.182C302.656 263.099 302.656 263.012 302.673 262.929C302.69 262.845 302.724 262.765 302.772 262.695C302.87 262.556 303.018 262.46 303.185 262.426C303.352 262.392 303.526 262.423 303.671 262.512C304.971 263.464 306.109 264.621 307.038 265.938C307.141 266.077 307.184 266.251 307.159 266.423C307.133 266.594 307.04 266.748 306.901 266.851C306.805 266.903 306.698 266.93 306.589 266.93C306.48 266.93 306.372 266.903 306.277 266.851Z" fill="white"/>
<path d="M303.062 268.526C302.955 268.477 302.861 268.404 302.787 268.313C301.935 267.146 300.907 266.119 299.74 265.268C299.622 265.163 299.546 265.019 299.525 264.863C299.505 264.707 299.541 264.548 299.628 264.417C299.716 264.285 299.847 264.19 299.999 264.147C300.151 264.105 300.314 264.119 300.456 264.187C301.765 265.129 302.904 266.288 303.824 267.612C303.874 267.68 303.911 267.757 303.931 267.839C303.951 267.921 303.955 268.006 303.943 268.09C303.93 268.174 303.901 268.254 303.857 268.326C303.813 268.398 303.755 268.461 303.687 268.511C303.592 268.565 303.485 268.595 303.376 268.597C303.267 268.6 303.159 268.575 303.062 268.526Z" fill="white"/>
<path d="M299.892 270.185C299.782 270.142 299.686 270.068 299.618 269.972C298.77 268.802 297.741 267.774 296.57 266.927C296.442 266.824 296.357 266.677 296.333 266.515C296.309 266.352 296.346 266.187 296.438 266.051C296.53 265.915 296.67 265.818 296.83 265.78C296.99 265.742 297.158 265.766 297.302 265.846C298.598 266.803 299.735 267.959 300.669 269.272C300.766 269.414 300.805 269.589 300.776 269.759C300.748 269.929 300.655 270.082 300.517 270.185C300.421 270.239 300.314 270.267 300.204 270.267C300.095 270.267 299.987 270.239 299.892 270.185Z" fill="white"/>
<path d="M315.755 94.1926C315.755 94.1926 329.377 107.483 330.078 134.172C330.886 164.955 328.341 254.641 328.341 254.641L301.096 253.941L287.032 94.5123L315.755 94.1926Z" fill="#FFDD14"/>
<path d="M295.458 188.568L290.521 138.937L283.481 130.594" stroke="black" stroke-miterlimit="10"/>
<path d="M317.842 46.5863L300.882 45.6729L288.89 47.1039L281.607 50.1488C281.037 50.3929 280.555 50.805 280.225 51.33C279.896 51.8551 279.735 52.468 279.763 53.0871L279.961 57.3194C279.961 57.3194 274.43 75.8778 281.043 80.1558L281.713 94.6341L316.562 94.2535L321.849 59.2377C321.91 56.8779 320.127 46.7538 317.842 46.5863Z" fill="white"/>
<path d="M277.508 74.9034C277.508 74.9034 276.258 67.8089 278.59 63.1959" stroke="#E2E2E2" stroke-width="0.76" stroke-miterlimit="10"/>
<path d="M332.76 65.8298L315.312 75.2993C319.35 83.7792 322.642 88.3009 324.211 93.4314C325.979 99.2167 330.459 103.814 336.097 101.592C338.599 100.603 340.619 98.6817 341.731 96.2332C342.842 93.7848 342.958 91.0007 342.055 88.4683L332.76 65.8298Z" fill="#FFC1B2"/>
<path d="M328.021 52.4324C326.79 50.1912 324.833 48.4342 322.471 47.4495C320.11 46.4648 317.484 46.3108 315.023 47.0126C309.781 48.4437 309.918 60.6231 311.488 65.8298C312.38 69.1276 313.664 72.3068 315.313 75.2993L334.68 65.4644L328.021 52.4324Z" fill="white"/>
<path d="M315.313 75.2993L311.031 67.9155" stroke="#E2E2E2" stroke-width="0.76" stroke-miterlimit="10"/>
<path d="M311.579 129.757L326.405 88.514C326.964 87.4882 327.724 86.5863 328.642 85.8628C329.559 85.1393 330.613 84.6093 331.742 84.3047C332.87 84.0001 334.048 83.9274 335.205 84.0909C336.362 84.2544 337.474 84.6508 338.474 85.256C339.485 85.8682 340.36 86.6808 341.044 87.6438C341.729 88.6069 342.209 89.6998 342.454 90.8553C342.7 92.0107 342.706 93.2042 342.472 94.3621C342.238 95.52 341.769 96.6178 341.094 97.5876L319.244 135.496L311.579 129.757Z" fill="#FFC1B2"/>
<path d="M321.941 136.425C322.483 134.755 322.516 132.961 322.038 131.272C321.559 129.583 320.59 128.073 319.253 126.934C317.916 125.795 316.27 125.078 314.525 124.873C312.78 124.669 311.013 124.986 309.448 125.785C307.884 126.584 306.591 127.828 305.734 129.361C304.877 130.894 304.495 132.646 304.635 134.396C304.775 136.146 305.431 137.815 306.521 139.193C307.61 140.57 309.085 141.594 310.757 142.134C312.997 142.858 315.434 142.663 317.532 141.593C319.629 140.522 321.215 138.663 321.941 136.425Z" fill="#FFC1B2"/>
<path d="M305.363 135.816C305.363 135.816 301.904 136.318 302.985 131.781C304.067 127.244 307.557 123.18 316.212 125.25L305.363 135.816Z" fill="#FFC1B2"/>
<path d="M285.264 3.48639C285.264 3.48639 274.079 2.48159 274.049 15.6658C274.049 25.5311 271.489 36.9798 268.061 42.8564C274.78 43.3283 297.012 42.8564 289.195 42.9782C283.42 43.0847 299.313 46.6472 313.652 39.644C315.754 34.1427 316.662 28.2582 316.318 22.3797C315.693 12.7275 311.412 5.496 306.307 2.22278C301.202 -1.05044 289.759 -0.8373 285.264 3.48639Z" fill="black"/>
<path d="M280.845 2.4664C280.845 2.4664 303.854 -4.88692 310.97 6.47038C316.12 14.7219 311.183 30.3116 300.456 35.1225C290.262 39.6897 291.664 5.72439 291.664 5.72439L280.845 2.4664Z" fill="black"/>
<path d="M285.553 25.2114C285.684 26.2089 285.515 27.2226 285.069 28.1243C284.622 29.026 283.918 29.7751 283.045 30.2769C282.173 30.7787 281.171 31.0106 280.166 30.9432C279.162 30.8759 278.199 30.5123 277.402 29.8986C276.604 29.2848 276.006 28.4484 275.685 27.4952C275.363 26.542 275.331 25.5148 275.594 24.5437C275.856 23.5725 276.401 22.701 277.16 22.0393C277.918 21.3777 278.856 20.9557 279.855 20.8268C281.191 20.6582 282.541 21.0245 283.608 21.8459C284.676 22.6672 285.375 23.877 285.553 25.2114Z" fill="#F1998A"/>
<path d="M286.955 37.4822L288.311 48.4741C288.784 52.3411 291.359 54.1071 295.214 53.6199C298.459 53.1937 301.309 51.1232 301.309 47.8652L298.261 30.6617L286.955 37.4822Z" fill="#FFC1B2"/>
<path d="M287.824 44.6529C287.824 44.6529 297.926 41.608 299.922 32.5496L286.788 36.3709L287.824 44.6529Z" fill="#0B181B"/>
<path d="M290.414 39.0655C283.893 39.4765 278.224 34.6656 277.691 29.3524L276.548 16.8228C276.239 13.6334 277.176 10.4481 279.165 7.93387C281.153 5.41959 284.037 3.77129 287.215 3.33409C294.011 2.45108 301.431 7.07926 302.315 13.8693L303.123 23.963C303.403 27.641 302.229 31.2822 299.854 34.1056C297.478 36.929 294.089 38.7096 290.414 39.0655Z" fill="#FFC1B2"/>
<path d="M311.366 22.8365C311.496 23.834 311.328 24.8477 310.881 25.7494C310.435 26.6511 309.731 27.4002 308.858 27.902C307.985 28.4038 306.983 28.6357 305.979 28.5683C304.974 28.501 304.012 28.1374 303.214 27.5237C302.416 26.9099 301.819 26.0735 301.497 25.1203C301.175 24.1671 301.144 23.1399 301.406 22.1687C301.669 21.1976 302.214 20.326 302.972 19.6644C303.731 19.0028 304.668 18.5808 305.667 18.4519C307.005 18.2792 308.356 18.6439 309.424 19.466C310.493 20.2881 311.191 21.5004 311.366 22.8365Z" fill="#FFC1B2"/>
<path d="M283.633 27.5255L283.557 28.9566H285.264" stroke="#1B142E" stroke-width="0.53" stroke-linecap="round" stroke-linejoin="round"/>
<path d="M291.13 18.6649C291.13 18.6649 288.311 18.5583 288.327 19.7458C288.327 19.7458 288.327 20.5375 290.841 20.5984C293.355 20.6593 293.888 20.4309 294.132 19.6697C294.376 18.9085 292.456 18.6192 291.13 18.6649Z" fill="black"/>
<path d="M279.321 19.1217C279.321 19.1217 281.653 18.7715 281.881 19.8829C281.881 19.8829 282.033 20.6289 279.992 20.8877C277.95 21.1465 277.295 20.8877 277.066 20.3092C276.837 19.7306 278.224 19.1826 279.321 19.1217Z" fill="#050505"/>
<path d="M282.552 31.56L289.988 31.4077C289.988 31.4077 289.988 33.6761 286.453 33.874C282.917 34.072 282.552 31.56 282.552 31.56Z" fill="white"/>
<path d="M288.799 23.7955C288.799 23.7955 290.033 22.0295 292.303 23.7955" stroke="#1B172C" stroke-width="0.65" stroke-linecap="round" stroke-linejoin="round"/>
<path d="M278.849 24.359C278.985 24.1129 279.183 23.906 279.422 23.758C279.662 23.61 279.935 23.5259 280.216 23.5136C280.498 23.5014 280.777 23.5615 281.029 23.6882C281.28 23.8149 281.495 24.0039 281.652 24.2372" stroke="#1B172C" stroke-width="0.62" stroke-linecap="round" stroke-linejoin="round"/>
<path d="M280.845 2.46643C280.845 2.46643 270.407 5.51129 273.043 17.508L306.277 15.468L302.605 3.97363L280.845 2.46643Z" fill="black"/>
<path d="M297.774 14.3869C299.539 24.6253 299.461 35.0962 297.545 45.3074C301.575 44.6411 305.483 43.3789 309.141 41.5622C309.141 41.5622 307.496 20.4614 304.646 13.7018C301.797 6.94226 297.896 11.1442 297.896 11.1442L297.774 14.3869Z" fill="black"/>
<path d="M289.135 46.6929L285.264 48.5655C285.264 48.5655 279.702 57.8979 290.658 58.2481C303.885 58.6744 304.966 51.047 307.069 45.9317L300.319 45.2922L289.135 46.6929Z" fill="#FFC1B2"/>
<path d="M24.9744 62.6327L84.7974 62.6327C87.524 62.6327 89.7344 60.4243 89.7344 57.7V18.0712C89.7344 15.347 87.524 13.1386 84.7974 13.1386L24.9744 13.1386C22.2478 13.1386 20.0374 15.347 20.0374 18.0712V57.7C20.0374 60.4243 22.2478 62.6327 24.9744 62.6327Z" fill="white"/>
<path d="M80.3483 58.583L74.9999 68.966C74.8485 69.2572 74.6226 69.5032 74.3451 69.6789C74.0676 69.8546 73.7485 69.9537 73.4202 69.966C73.0919 69.9784 72.7662 69.9037 72.4763 69.7494C72.1863 69.5951 71.9425 69.3668 71.7695 69.0878L65.3545 58.583H80.3483Z" fill="white"/>
<path d="M71.1138 27.1449H37.7891V48.0022H71.1138V27.1449Z" fill="black"/>
<path d="M37.7891 27.1449L53.9562 37.6801L71.1138 27.1449" stroke="white" stroke-width="1.15" stroke-linecap="round" stroke-linejoin="round"/>
<path d="M183.218 45.6729H210.95C211.556 45.6729 212.138 45.9134 212.566 46.3417C212.995 46.77 213.236 47.3508 213.236 47.9565V60.8971C213.236 61.5028 212.995 62.0836 212.566 62.5119C212.138 62.9402 211.556 63.1808 210.95 63.1808H180.947V47.9565C180.947 47.3535 181.186 46.7749 181.611 46.3471C182.037 45.9192 182.614 45.6769 183.218 45.6729Z" fill="black"/>
<path d="M180.947 59.5726L180.917 67.2913L187.499 59.6031L180.947 59.5726Z" fill="black"/>
<path d="M202.523 54.2745C202.523 54.6783 202.684 55.0655 202.97 55.351C203.256 55.6365 203.643 55.7969 204.047 55.7969C204.349 55.7969 204.643 55.7076 204.894 55.5404C205.144 55.3731 205.34 55.1353 205.455 54.8571C205.57 54.5789 205.601 54.2728 205.542 53.9775C205.483 53.6822 205.338 53.4109 205.125 53.198C204.912 52.9851 204.64 52.8401 204.344 52.7813C204.049 52.7226 203.743 52.7527 203.464 52.868C203.186 52.9832 202.948 53.1783 202.78 53.4287C202.613 53.679 202.523 53.9734 202.523 54.2745Z" fill="white"/>
<path d="M196.291 54.2441C196.291 54.5452 196.38 54.8396 196.548 55.0899C196.715 55.3403 196.953 55.5354 197.232 55.6506C197.51 55.7659 197.816 55.796 198.112 55.7373C198.408 55.6785 198.679 55.5335 198.892 55.3206C199.105 55.1077 199.25 54.8364 199.309 54.5411C199.368 54.2458 199.338 53.9397 199.223 53.6615C199.107 53.3833 198.912 53.1455 198.661 52.9783C198.411 52.811 198.116 52.7217 197.815 52.7217C197.411 52.7217 197.023 52.8821 196.737 53.1676C196.452 53.4531 196.291 53.8403 196.291 54.2441Z" fill="white"/>
<path d="M190.059 54.2289C190.044 54.5328 190.12 54.8343 190.278 55.0944C190.436 55.3546 190.668 55.5615 190.945 55.6885C191.222 55.8155 191.53 55.8567 191.831 55.8069C192.131 55.757 192.41 55.6183 192.63 55.4088C192.851 55.1992 193.004 54.9284 193.069 54.6312C193.135 54.3339 193.109 54.024 192.996 53.7414C192.884 53.4587 192.689 53.2163 192.437 53.0454C192.185 52.8745 191.887 52.783 191.583 52.7826C191.192 52.7821 190.815 52.932 190.531 53.2013C190.248 53.4705 190.079 53.8385 190.059 54.2289Z" fill="white"/>
<path d="M118.854 160.936C117.772 161.864 103.403 169.614 94.7173 180.727L112.073 196.713L140.811 189.816L142.503 160.89L118.854 160.936Z" fill="#0B181B"/>
<path d="M114.313 265.161L111.235 248.932H121.718L122.968 265.161H114.313Z" fill="#F9B0A3"/>
<path d="M122.968 263.624H114.282C110.577 266.105 107.876 269.824 106.664 274.113H131.044C131.044 274.113 127.067 265.481 122.968 263.624Z" fill="black"/>
<path d="M131.089 274.113H106.709V277.127H131.089V274.113Z" fill="white"/>
<path d="M113.978 267.719C113.978 267.719 119.113 265.024 122.968 267.719" stroke="white" stroke-width="0.96" stroke-linecap="round" stroke-linejoin="round"/>
<path d="M117.573 186.558C121.002 210.521 126.899 255.539 126.899 255.539L106.663 255.92L92.6446 191.095C92.2768 189.43 92.2487 187.707 92.5619 186.03C92.8751 184.354 93.5232 182.757 94.4675 181.336C95.4118 179.915 96.633 178.699 98.0582 177.76C99.4834 176.821 101.083 176.178 102.762 175.871C104.441 175.569 106.163 175.609 107.825 175.987C109.488 176.365 111.057 177.074 112.44 178.072C113.822 179.069 114.989 180.335 115.871 181.793C116.753 183.251 117.332 184.872 117.573 186.558Z" fill="#0B181B"/>
<path d="M162.54 160.936C163.622 161.864 177.991 169.614 186.676 180.727L169.321 196.713L140.582 189.816L138.891 160.89L162.54 160.936Z" fill="#0B181B"/>
<path d="M165.923 265.161L168.985 248.932H158.502L157.252 265.161H165.923Z" fill="#F9B0A3"/>
<path d="M157.252 263.624H165.907C169.613 266.105 172.314 269.824 173.526 274.113H149.146C149.146 274.113 153.153 265.481 157.252 263.624Z" fill="black"/>
<path d="M149.131 277.127H173.511V274.113H149.131V277.127Z" fill="white"/>
<path d="M166.243 267.719C166.243 267.719 161.108 265.024 157.252 267.719" stroke="white" stroke-width="0.96" stroke-linecap="round" stroke-linejoin="round"/>
<path d="M163.835 186.558C160.407 210.521 153.047 255.539 153.047 255.539L173.343 255.92L188.825 191.095C189.193 189.429 189.221 187.707 188.908 186.03C188.594 184.354 187.946 182.757 187.002 181.336C186.058 179.915 184.836 178.699 183.411 177.76C181.986 176.821 180.386 176.178 178.707 175.871C177.024 175.56 175.296 175.593 173.626 175.967C171.956 176.341 170.38 177.048 168.99 178.046C167.601 179.045 166.428 180.313 165.542 181.776C164.657 183.239 164.076 184.866 163.835 186.558Z" fill="#0B181B"/>
<path d="M138.084 94.558C138.084 94.558 119.798 94.558 106.222 107.834V145.042C106.222 145.042 170.875 146.016 170.875 145.042C170.875 144.067 170.875 105.367 170.875 105.367C161.358 98.4002 149.881 94.6169 138.084 94.558Z" fill="#FFDD14"/>
<path d="M110.778 142.956H92.3403C90.0165 142.956 87.788 143.878 86.1449 145.52C84.5017 147.162 83.5786 149.388 83.5786 151.71C83.5766 152.861 83.8018 154.001 84.2412 155.065C84.6806 156.128 85.3257 157.095 86.1395 157.91C86.9533 158.724 87.9198 159.37 88.9838 159.811C90.0478 160.252 91.1884 160.479 92.3403 160.479H114.023L110.778 142.956Z" fill="#E88E80"/>
<path d="M84.6602 147.493L97.0484 127.397L114.023 129.68L111.509 151.71L84.6602 147.493Z" fill="#E88E80"/>
<path d="M106.221 142.956H95.2656" stroke="#55382C" stroke-width="0.72" stroke-miterlimit="10"/>
<path d="M108.949 105.367C108.949 105.367 99.0448 113.421 88.4546 131.142C88.4546 131.142 90.725 141.388 110.321 142.956L108.949 105.367Z" fill="#FFDD14"/>
<path d="M168.482 142.956H186.92C189.245 142.956 191.475 143.878 193.121 145.519C194.766 147.16 195.693 149.387 195.697 151.71C195.697 154.036 194.772 156.266 193.126 157.911C191.48 159.555 189.248 160.479 186.92 160.479H165.237L168.482 142.956Z" fill="#E88E80"/>
<path d="M194.554 147.401L179.057 123.712L165.237 129.68L167.751 151.71L194.554 147.401Z" fill="#E88E80"/>
<path d="M169.534 142.956H184.009" stroke="#55382C" stroke-width="0.72" stroke-miterlimit="10"/>
<path d="M170.905 105.367C170.905 105.367 180.87 113.421 191.384 131.142C191.384 131.142 189.129 141.388 169.534 142.956L170.905 105.367Z" fill="#FFDD14"/>
<path d="M167.949 117.531H109.163C107.538 117.531 106.222 118.847 106.222 120.47V157.541C106.222 159.164 107.538 160.479 109.163 160.479H167.949C169.574 160.479 170.89 159.164 170.89 157.541V120.47C170.89 118.847 169.574 117.531 167.949 117.531Z" fill="#AFAFAF"/>
<path d="M142.518 138.998C142.518 139.781 142.285 140.546 141.85 141.197C141.415 141.848 140.796 142.355 140.072 142.655C139.348 142.954 138.552 143.033 137.783 142.88C137.015 142.727 136.309 142.35 135.755 141.797C135.201 141.243 134.823 140.538 134.67 139.77C134.517 139.002 134.596 138.206 134.896 137.483C135.196 136.76 135.703 136.141 136.355 135.706C137.006 135.271 137.772 135.039 138.556 135.039C139.607 135.039 140.614 135.456 141.357 136.199C142.1 136.941 142.518 137.948 142.518 138.998Z" fill="white"/>
<path d="M131.44 86.7783H145.657V95.9129C145.657 96.5646 145.528 97.21 145.279 97.8122C145.029 98.4143 144.663 98.9615 144.202 99.4223C143.74 99.8832 143.193 100.249 142.59 100.498C141.987 100.748 141.342 100.876 140.689 100.876H136.392C135.077 100.872 133.818 100.347 132.889 99.417C131.961 98.4866 131.44 97.2265 131.44 95.9129V86.7783Z" fill="#E88E80"/>
<path d="M131.47 87.3265C131.47 87.3265 133.543 93.675 145.641 93.4162V84.6775C145.641 84.6775 144.834 86.3065 139.44 86.0781C134.045 85.8498 131.47 87.3265 131.47 87.3265Z" fill="#0B0B0B"/>
<path d="M138.419 80.9627C148.164 80.9627 156.064 72.872 156.064 62.8915C156.064 52.9111 148.164 44.8203 138.419 44.8203C128.673 44.8203 120.773 52.9111 120.773 62.8915C120.773 72.872 128.673 80.9627 138.419 80.9627Z" fill="#0B181B"/>
<path d="M153.672 69.4988C154.102 68.907 154.726 68.4841 155.436 68.3034C156.145 68.1226 156.896 68.1955 157.557 68.5093C160.178 69.4988 158.989 75.8626 155.058 76.6694C154.617 76.747 154.164 76.7286 153.73 76.6157C153.296 76.5027 152.891 76.2978 152.544 76.0148C152.544 76.0148 153.519 71.2801 153.672 69.4988Z" fill="#E88E80"/>
<path d="M157.039 70.7016C157.039 70.7016 154.845 69.9708 153.291 73.1984" stroke="#021833" stroke-width="0.46" stroke-linecap="round" stroke-linejoin="round"/>
<path d="M123.593 69.4988C123.16 68.9057 122.533 68.4823 121.821 68.3016C121.108 68.121 120.356 68.1944 119.692 68.5092C117.071 69.4988 118.259 75.8626 122.191 76.6694C122.632 76.7522 123.086 76.7364 123.521 76.6232C123.956 76.5101 124.36 76.3023 124.705 76.0148C124.705 76.0148 123.745 71.28 123.593 69.4988Z" fill="#E88E80"/>
<path d="M120.21 70.7016C120.21 70.7016 122.404 69.9708 123.974 73.1984" stroke="#021833" stroke-width="0.46" stroke-linecap="round" stroke-linejoin="round"/>
<path d="M153.9 64.0181C153.9 68.083 153.474 76.6085 150.853 81.663C149.768 83.9082 148.068 85.8005 145.951 87.1207C143.835 88.4409 141.387 89.1351 138.891 89.1229C133.512 89.2751 129.505 87.3112 126.29 81.1454C123.075 74.9795 123.242 64.0942 123.242 64.0942C123.242 64.0942 123.242 49.5398 138.48 49.5398C154.388 49.5398 153.9 64.0181 153.9 64.0181Z" fill="#E88E80"/>
<path d="M123.592 69.4988C123.592 69.4988 129.352 56.3146 124.705 54.168C124.705 54.168 121.383 65.4644 123.592 69.4988Z" fill="#0B181B"/>
<path d="M153.626 69.4988C153.626 69.4988 150.38 62.3891 153.245 57.3194C153.245 57.2737 155.835 65.4644 153.626 69.4988Z" fill="#0B181B"/>
<path d="M133.238 72.696C133.238 72.97 133.157 73.2378 133.004 73.4657C132.852 73.6935 132.635 73.871 132.382 73.9759C132.129 74.0808 131.85 74.1082 131.581 74.0547C131.312 74.0013 131.065 73.8693 130.871 73.6756C130.677 73.4818 130.545 73.235 130.491 72.9662C130.438 72.6975 130.465 72.4189 130.57 72.1658C130.675 71.9126 130.853 71.6963 131.081 71.544C131.309 71.3918 131.577 71.3105 131.851 71.3105C132.219 71.3105 132.572 71.4565 132.832 71.7163C133.092 71.9761 133.238 72.3285 133.238 72.696Z" fill="#0B181B"/>
<path d="M146.083 72.696C146.083 72.97 146.002 73.2378 145.85 73.4657C145.697 73.6935 145.481 73.871 145.227 73.9759C144.974 74.0808 144.695 74.1082 144.426 74.0547C144.157 74.0013 143.91 73.8693 143.716 73.6756C143.522 73.4818 143.39 73.235 143.337 72.9662C143.283 72.6975 143.311 72.4189 143.416 72.1658C143.521 71.9126 143.698 71.6963 143.926 71.544C144.154 71.3918 144.422 71.3105 144.697 71.3105C145.064 71.3105 145.417 71.4565 145.677 71.7163C145.937 71.9761 146.083 72.3285 146.083 72.696Z" fill="#0B181B"/>
<path d="M137.581 75.7256V77.6438C137.579 77.7525 137.601 77.8602 137.646 77.9592C137.691 78.0581 137.758 78.1458 137.841 78.2158C137.924 78.2858 138.022 78.3364 138.127 78.3639C138.232 78.3913 138.342 78.395 138.449 78.3746L139.44 78.1615" stroke="#021833" stroke-width="0.46" stroke-linecap="round" stroke-linejoin="round"/>
<path d="M135.966 68.4027L127.57 69.4227C127.57 69.4227 128.24 67.1847 131.669 66.8041C135.097 66.4235 135.966 68.4027 135.966 68.4027Z" fill="#0B181B"/>
<path d="M140.826 68.4027L149.222 69.4227C149.222 69.4227 148.552 67.1847 145.123 66.8041C141.695 66.4235 140.826 68.4027 140.826 68.4027Z" fill="#0B181B"/>
<path d="M134.091 80.4756H142.579C142.579 80.4756 142.716 83.627 138.312 83.5204C133.909 83.4139 134.091 80.4756 134.091 80.4756Z" fill="white"/>
<path d="M124.705 54.168C124.705 54.168 134.182 65.6471 154.25 61.7801C154.25 61.7801 156.018 51.4124 145.641 48.2457C135.264 45.0791 127.173 52.6151 124.705 54.168Z" fill="#0B181B"/>
<path d="M124.705 54.168C124.705 54.168 124.507 44.7442 133.238 43.3283C141.969 41.9124 142.244 46.5863 148.476 46.9517C157.71 47.515 161.915 56.5734 154.312 61.8258L141.482 54.2137L124.705 54.168Z" fill="#0B181B"/>
<path d="M125.04 51.4276C125.04 51.4276 115.532 52.5999 121.398 67.6719L125.04 51.4276Z" fill="#0B181B"/>
<path d="M131.44 93.0508L138.419 100.907L133.238 106.22L126.594 96.1413L131.44 93.0508Z" fill="white"/>
<path d="M145.641 93.4618L138.418 100.906L143.615 106.22L151.02 96.126L145.641 93.4618Z" fill="white"/>
<path d="M238.637 160.479H36.5552V171.669H238.637V160.479Z" fill="white"/>
<path d="M75.091 171.654H68.0664V277.508H75.091V171.654Z" fill="white"/>
<path d="M75.091 171.654H68.0664V175.186H75.091V171.654Z" fill="#EAEAEA"/>
<path d="M212.489 171.654H205.464V277.508H212.489V171.654Z" fill="white"/>
<path d="M212.489 171.654H205.464V175.186H212.489V171.654Z" fill="#EAEAEA"/>
<path d="M386 278.132H0" stroke="#55382E" stroke-width="1.15" stroke-miterlimit="10"/>
</svg>
