<svg width="405" height="266" viewBox="0 0 405 266" fill="none" xmlns="http://www.w3.org/2000/svg">
<path d="M194.625 2.22095H22.8455C20.9269 2.22095 19.3716 3.77625 19.3716 5.69482V125.955C19.3716 127.874 20.9269 129.429 22.8455 129.429H194.625C196.544 129.429 198.099 127.874 198.099 125.955V5.69482C198.099 3.77625 196.544 2.22095 194.625 2.22095Z" fill="white"/>
<path d="M19.3716 44.7318H198.099" stroke="#F2F2F2" stroke-width="1.96" stroke-miterlimit="10"/>
<path d="M19.3716 84.534H198.099" stroke="#F2F2F2" stroke-width="1.96" stroke-miterlimit="10"/>
<path d="M49.1345 37.1216C55.1097 37.1216 59.9535 32.2778 59.9535 26.3026C59.9535 20.3274 55.1097 15.4835 49.1345 15.4835C43.1593 15.4835 38.3154 20.3274 38.3154 26.3026C38.3154 32.2778 43.1593 37.1216 49.1345 37.1216Z" fill="black"/>
<path d="M59.6805 66.9365C61.0084 61.1107 57.3621 55.3115 51.5363 53.9837C45.7105 52.6558 39.9114 56.3021 38.5835 62.1279C37.2556 67.9537 40.9019 73.7528 46.7277 75.0807C52.5535 76.4086 58.3527 72.7623 59.6805 66.9365Z" fill="black"/>
<path d="M49.1345 115.019C55.1097 115.019 59.9535 110.175 59.9535 104.2C59.9535 98.2245 55.1097 93.3806 49.1345 93.3806C43.1593 93.3806 38.3154 98.2245 38.3154 104.2C38.3154 110.175 43.1593 115.019 49.1345 115.019Z" fill="black"/>
<path d="M66.4888 21.6216H163.168" stroke="#020202" stroke-width="0.98" stroke-linecap="round" stroke-linejoin="round"/>
<path d="M66.4888 29.1876H80.8258" stroke="#020202" stroke-width="0.98" stroke-linecap="round" stroke-linejoin="round"/>
<path d="M66.4888 60.2463H163.168" stroke="#020202" stroke-width="0.98" stroke-linecap="round" stroke-linejoin="round"/>
<path d="M66.4888 67.8123H117.728" stroke="#020202" stroke-width="0.98" stroke-linecap="round" stroke-linejoin="round"/>
<path d="M66.4888 100.328H87.6117" stroke="#020202" stroke-width="0.98" stroke-linecap="round" stroke-linejoin="round"/>
<path d="M66.4888 107.894H163.168" stroke="#020202" stroke-width="0.98" stroke-linecap="round" stroke-linejoin="round"/>
<path d="M44.7925 27.4359L47.8689 29.5261L53.4772 23.0789" stroke="white" stroke-width="1.22" stroke-linecap="round" stroke-linejoin="round"/>
<path d="M44.7925 65.5749L47.8689 67.6651L53.4772 61.2178" stroke="white" stroke-width="1.22" stroke-linecap="round" stroke-linejoin="round"/>
<path d="M44.7925 105.348L47.8689 107.438L53.4772 100.976" stroke="white" stroke-width="1.22" stroke-linecap="round" stroke-linejoin="round"/>
<path d="M331.357 45.5118C343.625 45.5118 353.569 35.5671 353.569 23.2997C353.569 11.0322 343.625 1.08752 331.357 1.08752C319.09 1.08752 309.145 11.0322 309.145 23.2997C309.145 35.5671 319.09 45.5118 331.357 45.5118Z" stroke="black" stroke-width="0.98" stroke-linecap="round" stroke-linejoin="round"/>
<path d="M331.357 13.8054V23.2997H346.342" stroke="black" stroke-width="0.98" stroke-linecap="round" stroke-linejoin="round"/>
<path d="M372.234 84.7695H398.611C399.451 84.7715 400.282 84.6075 401.058 84.2872C401.834 83.9668 402.539 83.4963 403.133 82.9027C403.727 82.3091 404.197 81.6041 404.517 80.8281C404.838 80.0522 405.002 79.2206 405 78.3811C405 76.6868 404.327 75.0619 403.129 73.8639C401.931 72.6658 400.306 71.9927 398.611 71.9927H372.234C371.395 71.9927 370.565 72.1581 369.791 72.4793C369.017 72.8005 368.314 73.2713 367.721 73.8647C367.129 74.4582 366.66 75.1625 366.341 75.9375C366.021 76.7125 365.858 77.5429 365.86 78.3811C365.858 79.2194 366.021 80.0498 366.341 80.8247C366.66 81.5997 367.129 82.3041 367.721 82.8975C368.314 83.4909 369.017 83.9617 369.791 84.2829C370.565 84.6042 371.395 84.7695 372.234 84.7695Z" fill="black"/>
<path d="M391.031 78.3811C391.029 78.6046 391.072 78.8263 391.156 79.0334C391.24 79.2405 391.365 79.4289 391.522 79.5876C391.679 79.7464 391.867 79.8724 392.073 79.9584C392.279 80.0443 392.501 80.0886 392.724 80.0886C392.961 80.1106 393.199 80.0831 393.424 80.0076C393.65 79.9322 393.857 79.8106 394.033 79.6506C394.208 79.4906 394.348 79.2957 394.444 79.0783C394.54 78.861 394.59 78.6261 394.59 78.3885C394.59 78.1509 394.54 77.9159 394.444 77.6986C394.348 77.4813 394.208 77.2864 394.033 77.1263C393.857 76.9663 393.65 76.8447 393.424 76.7693C393.199 76.6939 392.961 76.6663 392.724 76.6883C392.501 76.6864 392.28 76.7288 392.074 76.8132C391.868 76.8976 391.68 77.0222 391.523 77.1798C391.365 77.3373 391.241 77.5247 391.156 77.731C391.072 77.9373 391.029 78.1583 391.031 78.3811Z" fill="white"/>
<path d="M383.731 78.3812C383.77 78.8048 383.966 79.1984 384.281 79.4849C384.595 79.7715 385.005 79.9303 385.431 79.9303C385.856 79.9303 386.266 79.7715 386.581 79.4849C386.895 79.1984 387.091 78.8048 387.131 78.3812C387.153 78.1446 387.125 77.9061 387.05 77.6808C386.974 77.4555 386.853 77.2484 386.693 77.0728C386.533 76.8972 386.338 76.7569 386.121 76.6609C385.903 76.5649 385.668 76.5153 385.431 76.5153C385.193 76.5153 384.958 76.5649 384.741 76.6609C384.523 76.7569 384.329 76.8972 384.168 77.0728C384.008 77.2484 383.887 77.4555 383.811 77.6808C383.736 77.9061 383.708 78.1446 383.731 78.3812Z" fill="white"/>
<path d="M376.429 78.3811C376.429 78.7188 376.529 79.0489 376.717 79.3297C376.905 79.6105 377.171 79.8294 377.483 79.9586C377.795 80.0878 378.139 80.1216 378.47 80.0558C378.801 79.9899 379.105 79.8273 379.344 79.5885C379.583 79.3497 379.746 79.0454 379.811 78.7142C379.877 78.383 379.843 78.0397 379.714 77.7276C379.585 77.4156 379.366 77.149 379.085 76.9613C378.805 76.7737 378.474 76.6736 378.137 76.6736C377.684 76.6736 377.25 76.8535 376.929 77.1737C376.609 77.4939 376.429 77.9282 376.429 78.3811Z" fill="white"/>
<path d="M257.743 193.048H290.995C309.689 193.048 322.76 180.993 325.866 162.564L334.139 113.576" stroke="#1B172C" stroke-width="5.46" stroke-linecap="round" stroke-linejoin="round"/>
<path d="M258.112 265.161L273.038 195.978C273.887 192.121 276.028 188.669 279.106 186.196C282.185 183.722 286.016 182.375 289.965 182.376V182.376C293.967 182.379 297.845 183.765 300.941 186.301C304.037 188.836 306.161 192.364 306.952 196.287L320.48 265.131" stroke="white" stroke-width="1.88" stroke-miterlimit="10"/>
<path d="M191.343 255.239L199.056 230.76L211.318 230.098L203.619 256.373L191.799 256.446L191.343 255.239Z" fill="#FFBD9A"/>
<path d="M205.341 251.309C205.341 251.309 195.199 255.475 190.43 248.895L169.557 261.584L208.476 261.333L205.341 251.309Z" fill="black"/>
<path d="M209.409 260.588L170.49 260.977L170.526 264.569L209.445 264.179L209.409 260.588Z" fill="white"/>
<path d="M190.68 254.445C190.568 254.398 190.472 254.321 190.4 254.224C189.499 253.023 188.417 251.97 187.192 251.103C187.118 251.057 187.054 250.996 187.004 250.925C186.955 250.853 186.92 250.773 186.902 250.687C186.884 250.602 186.884 250.514 186.9 250.429C186.917 250.344 186.951 250.262 187 250.19C187.111 250.05 187.269 249.954 187.445 249.922C187.621 249.889 187.803 249.922 187.957 250.014C189.323 250.962 190.526 252.125 191.519 253.458C191.572 253.528 191.609 253.607 191.629 253.692C191.65 253.776 191.652 253.864 191.637 253.95C191.622 254.036 191.589 254.117 191.541 254.19C191.493 254.262 191.43 254.324 191.357 254.371C191.26 254.441 191.147 254.484 191.028 254.497C190.91 254.51 190.79 254.492 190.68 254.445Z" fill="white"/>
<path d="M187.339 256.122C187.223 256.076 187.121 256 187.044 255.902C186.158 254.688 185.073 253.633 183.836 252.781C183.761 252.735 183.697 252.674 183.648 252.602C183.598 252.53 183.564 252.449 183.548 252.363C183.531 252.278 183.532 252.189 183.552 252.104C183.571 252.019 183.607 251.939 183.659 251.868C183.763 251.723 183.919 251.623 184.094 251.59C184.27 251.558 184.452 251.594 184.601 251.692C185.971 252.635 187.175 253.799 188.163 255.136C188.216 255.205 188.255 255.283 188.276 255.367C188.297 255.451 188.301 255.539 188.288 255.624C188.274 255.71 188.243 255.792 188.196 255.865C188.149 255.938 188.088 256 188.016 256.049C187.918 256.117 187.805 256.16 187.687 256.173C187.569 256.185 187.449 256.168 187.339 256.122Z" fill="white"/>
<path d="M183.998 257.801C183.886 257.754 183.789 257.677 183.718 257.58C182.827 256.37 181.743 255.316 180.509 254.459C180.435 254.413 180.372 254.352 180.322 254.281C180.272 254.209 180.237 254.129 180.219 254.043C180.201 253.958 180.201 253.87 180.218 253.785C180.235 253.7 180.269 253.618 180.318 253.546C180.424 253.4 180.583 253.3 180.761 253.267C180.939 253.234 181.123 253.271 181.274 253.37C182.644 254.313 183.848 255.477 184.837 256.814C184.889 256.884 184.926 256.963 184.947 257.048C184.967 257.132 184.97 257.22 184.954 257.306C184.939 257.391 184.906 257.473 184.858 257.546C184.81 257.618 184.748 257.68 184.675 257.727C184.576 257.793 184.463 257.834 184.345 257.847C184.227 257.86 184.108 257.844 183.998 257.801Z" fill="white"/>
<path d="M234.545 159.826L223.888 160.503C220.222 160.729 216.718 162.093 213.863 164.404C211.009 166.715 208.945 169.859 207.961 173.397L191.269 237.737L213.348 238.724L233.043 179.064L234.545 159.826Z" fill="#FFDD14"/>
<path d="M236.046 255.239L236.4 231.084L248.661 230.422L248.323 256.373L236.503 256.446L236.046 255.239Z" fill="#FFBD9A"/>
<path d="M250.045 251.309C250.045 251.309 239.903 255.475 235.134 248.895L214.261 261.584L253.18 261.333L250.045 251.309Z" fill="black"/>
<path d="M253.183 261.327L214.265 261.578L214.288 265.17L253.206 264.918L253.183 261.327Z" fill="white"/>
<path d="M235.384 254.445C235.273 254.398 235.176 254.321 235.105 254.224C234.203 253.023 233.121 251.97 231.896 251.103C231.822 251.057 231.758 250.996 231.709 250.925C231.659 250.853 231.624 250.773 231.606 250.687C231.588 250.602 231.588 250.514 231.605 250.429C231.621 250.344 231.655 250.262 231.704 250.19C231.815 250.05 231.973 249.954 232.149 249.922C232.325 249.889 232.507 249.922 232.661 250.014C234.027 250.962 235.23 252.125 236.223 253.458C236.276 253.528 236.313 253.607 236.333 253.692C236.354 253.776 236.356 253.864 236.341 253.95C236.326 254.036 236.293 254.117 236.245 254.19C236.197 254.262 236.134 254.324 236.061 254.371C235.964 254.439 235.851 254.482 235.732 254.495C235.614 254.508 235.494 254.49 235.384 254.445Z" fill="white"/>
<path d="M232.042 256.122C231.927 256.076 231.825 256 231.748 255.902C230.857 254.692 229.773 253.638 228.539 252.781C228.465 252.735 228.401 252.674 228.352 252.602C228.302 252.53 228.268 252.449 228.251 252.363C228.235 252.278 228.236 252.189 228.255 252.104C228.274 252.019 228.311 251.939 228.363 251.868C228.466 251.723 228.622 251.623 228.798 251.59C228.974 251.558 229.155 251.594 229.305 251.692C230.674 252.635 231.878 253.799 232.867 255.136C232.92 255.205 232.958 255.283 232.98 255.367C233.001 255.451 233.005 255.539 232.991 255.624C232.977 255.71 232.946 255.792 232.899 255.865C232.853 255.938 232.792 256 232.72 256.049C232.622 256.117 232.509 256.16 232.39 256.173C232.272 256.185 232.152 256.168 232.042 256.122Z" fill="white"/>
<path d="M228.686 257.801C228.575 257.754 228.478 257.677 228.407 257.58C227.516 256.37 226.432 255.316 225.198 254.459C225.124 254.413 225.061 254.352 225.011 254.281C224.961 254.209 224.926 254.129 224.908 254.043C224.89 253.958 224.89 253.87 224.907 253.785C224.924 253.7 224.958 253.618 225.007 253.546C225.113 253.4 225.272 253.3 225.45 253.267C225.628 253.234 225.812 253.271 225.963 253.37C227.333 254.313 228.537 255.477 229.526 256.814C229.578 256.884 229.615 256.963 229.636 257.048C229.656 257.132 229.659 257.22 229.643 257.306C229.628 257.391 229.595 257.473 229.547 257.546C229.499 257.618 229.437 257.68 229.364 257.727C229.265 257.793 229.152 257.834 229.034 257.847C228.916 257.86 228.797 257.844 228.686 257.801Z" fill="white"/>
<path d="M300.092 158.678L266.752 160.017L241.86 160.518C234.589 160.518 228.613 164.934 228.613 172.176C228.289 194.506 230.011 240.947 231.056 240.74C232.528 240.446 252.886 240.74 252.886 240.74L254.961 190.001L270.844 191.724C274.774 191.724 286.3 192.504 289.818 190.723C297.148 187.057 306.436 178.476 300.092 158.678Z" fill="#FFDD14"/>
<path d="M254.903 190.001L254.52 178.638" stroke="black" stroke-width="0.84" stroke-miterlimit="10"/>
<path d="M203.354 119.052L189.959 112.354C189.959 112.354 179.022 111.545 172.383 112.987C172.064 113.061 171.785 113.255 171.604 113.529C171.423 113.803 171.354 114.136 171.412 114.459C171.479 114.758 171.655 115.022 171.905 115.198C172.155 115.375 172.462 115.453 172.766 115.416L178.904 114.739L175.592 116.991C175.405 117.141 175.257 117.335 175.161 117.556C175.066 117.776 175.026 118.017 175.044 118.256C175.063 118.496 175.141 118.727 175.269 118.93C175.398 119.133 175.575 119.301 175.784 119.42C175.979 119.522 176.196 119.575 176.417 119.575C176.637 119.575 176.854 119.522 177.05 119.42C178.89 118.404 184.66 115.755 190.297 118.919L185.042 121.275C184.803 121.383 184.593 121.546 184.429 121.751C184.265 121.956 184.152 122.196 184.099 122.453C184.046 122.71 184.055 122.976 184.124 123.229C184.193 123.482 184.321 123.715 184.498 123.909C184.679 124.114 184.909 124.269 185.166 124.362C185.423 124.455 185.7 124.481 185.97 124.439L190.857 123.806C194.434 125.143 198.386 125.07 201.911 123.6L203.354 119.052Z" fill="#FFC9BD"/>
<path d="M247.101 101.741C242.847 112.134 236.797 132.83 236.797 132.83L203.251 117.035L198.835 128.546L227.288 147.976L258.406 146.681L260.717 122.334L247.101 101.741Z" fill="#FCF2D4"/>
<path d="M252.695 94.9556C250.27 96.6904 248.341 99.0299 247.101 101.741L245.084 159.826C245.084 159.826 280.736 167.333 300.092 158.678C300.092 158.678 299.548 110.102 288.523 97.1489C288.523 97.1489 285.049 90.3189 267.37 90.2894C262.101 90.2064 256.948 91.8447 252.695 94.9556Z" fill="#FCF2D4"/>
<path d="M249.559 112.134L252.135 152.922" stroke="black" stroke-width="0.73" stroke-miterlimit="10"/>
<path d="M215.086 145.827L214.6 135.818C214.6 135.818 211.008 128.311 207.741 128.208C205.064 128.373 202.547 129.54 200.69 131.475C200.518 131.653 200.391 131.869 200.318 132.105C200.245 132.341 200.228 132.591 200.27 132.835C200.312 133.078 200.41 133.309 200.557 133.507C200.704 133.706 200.896 133.867 201.117 133.978C203.105 134.888 204.861 136.237 206.254 137.923C206.254 137.923 204.664 146.004 207.343 149.33C208.697 151.023 216.705 152.922 216.705 152.922L215.086 145.827Z" fill="#FFC9BD"/>
<path d="M269.534 99.9162L263.116 140.646L214.791 142.736V159.826L266.752 158.575C267.586 158.66 268.429 158.557 269.219 158.275C270.008 157.992 270.724 157.536 271.315 156.941L271.845 157.191C271.845 157.191 285.917 157.426 289.877 109.381L269.534 99.9162Z" fill="#FCF2D4"/>
<path d="M219.295 142.545L263.131 140.557L268.342 107.541" stroke="black" stroke-width="0.73" stroke-miterlimit="10"/>
<path d="M263.131 140.557L269.814 142.545" stroke="black" stroke-width="0.73" stroke-miterlimit="10"/>
<path d="M288.891 122.246L284.092 143.987C282.87 149.455 279.904 154.378 275.643 158.015L273.45 159.752" stroke="black" stroke-width="0.73" stroke-miterlimit="10"/>
<path d="M243.981 53.0778C243.981 53.0778 245.188 58.8185 243.981 62.3218C242.774 65.8251 238.946 67.459 240.669 76.6C242.391 85.741 240.551 85.9618 240.139 88.5525C240.139 88.5525 276.85 92.0116 295.22 82.5762L288.67 71.3303C285.225 65.4424 283.945 55.6684 283.945 55.6684L269.858 50.281L243.981 53.0778Z" fill="black"/>
<path d="M252.695 46.292C252.282 46.1595 253.916 43.7455 254.328 43.5983C260.864 41.5228 274.818 38.7554 281.928 50.2369C287.139 58.6713 281.928 74.5245 270.932 79.3232C260.496 83.901 262.277 49.2801 262.277 49.2801L252.695 46.292Z" fill="black"/>
<path d="M255.373 67.7681C255.497 68.7854 255.316 69.8163 254.853 70.7308C254.391 71.6452 253.668 72.4019 252.775 72.9054C251.883 73.4088 250.861 73.6363 249.839 73.5591C248.818 73.482 247.842 73.1036 247.035 72.4718C246.228 71.84 245.627 70.9831 245.307 70.0096C244.987 69.0361 244.963 67.9897 245.238 67.0026C245.513 66.0154 246.075 65.132 246.851 64.4639C247.628 63.7958 248.586 63.3731 249.603 63.2492C250.967 63.0869 252.339 63.4712 253.421 64.318C254.502 65.1648 255.204 66.4052 255.373 67.7681Z" fill="#FFB1A7"/>
<path d="M257.155 81.6195L258.436 92.8359C258.878 96.7809 261.542 98.6061 265.413 98.1498C268.725 97.7376 271.625 95.6621 271.64 92.2619L268.769 74.7012L257.155 81.6195Z" fill="#FFC9BD"/>
<path d="M257.949 88.5524C265.81 87.8606 269.858 76.6 269.858 76.6L256.993 80.4713L257.949 88.5524Z" fill="#1B172C"/>
<path d="M260.673 83.2534C254.019 83.6067 248.264 78.6461 247.793 73.2292L246.763 60.4377C246.479 57.1698 247.477 53.9197 249.545 51.3737C251.613 48.8277 254.59 47.185 257.847 46.7925C264.78 45.9682 272.287 50.7521 273.111 57.6851L273.832 67.989C274.035 69.8678 273.85 71.7683 273.289 73.5726C272.727 75.377 271.8 77.0466 270.566 78.4779C269.332 79.9092 267.817 81.0717 266.115 81.8931C264.414 82.7146 262.561 83.1776 260.673 83.2534Z" fill="#FFC9BD"/>
<path d="M267.68 56.0512C264.53 60.7615 269.682 67.4443 269.682 67.4443L279.411 55.6685C279.411 55.6685 269.549 53.2544 267.68 56.0512Z" fill="black"/>
<path d="M279.97 66.2078C280.094 67.225 279.913 68.256 279.451 69.1704C278.988 70.0849 278.265 70.8416 277.373 71.3451C276.48 71.8485 275.458 72.076 274.437 71.9988C273.415 71.9217 272.439 71.5433 271.632 70.9115C270.825 70.2797 270.224 69.4228 269.904 68.4493C269.585 67.4758 269.561 66.4294 269.835 65.4423C270.11 64.4551 270.672 63.5717 271.449 62.9036C272.226 62.2355 273.183 61.8128 274.2 61.6889C275.564 61.5266 276.937 61.9109 278.018 62.7577C279.099 63.6045 279.801 64.8449 279.97 66.2078Z" fill="#FFC9BD"/>
<path d="M273.214 68.5777C273.214 68.5777 272.758 64.8389 276.394 65.0008" stroke="#1B172C" stroke-width="0.56" stroke-linecap="round" stroke-linejoin="round"/>
<path d="M254.108 71.3009L254.005 72.817H255.521" stroke="#1B172C" stroke-width="0.56" stroke-linecap="round" stroke-linejoin="round"/>
<path d="M261.6 61.9685C261.6 61.9685 258.656 61.8508 258.729 62.7781C258.729 62.7781 258.729 63.4111 261.261 63.4699C263.793 63.5288 264.426 63.3669 264.632 62.7781C264.838 62.1893 262.939 61.9391 261.6 61.9685Z" fill="black"/>
<path d="M250.089 62.3513C250.089 62.3513 252.459 62.0863 252.694 62.9548C252.694 62.9548 252.827 63.5436 250.751 63.7349C248.676 63.9263 247.999 63.7349 247.807 63.2492C247.616 62.7634 248.97 62.3954 250.089 62.3513Z" fill="black"/>
<path d="M258.921 68.0773C258.921 68.0773 260.202 66.2373 262.586 68.0773" stroke="#1B172C" stroke-width="0.71" stroke-linecap="round" stroke-linejoin="round"/>
<path d="M249.073 68.3864C249.206 68.1454 249.399 67.9426 249.633 67.7977C249.867 67.6527 250.134 67.5703 250.409 67.5585C250.684 67.5467 250.957 67.6058 251.203 67.7301C251.449 67.8545 251.658 68.0399 251.811 68.2686" stroke="#1B172C" stroke-width="0.71" stroke-linecap="round" stroke-linejoin="round"/>
<path d="M256.492 75.5402C257.164 75.6431 257.851 75.5604 258.479 75.3009C259.106 75.0415 259.651 74.6152 260.054 74.0682" stroke="#1B172C" stroke-width="0.71" stroke-linecap="round" stroke-linejoin="round"/>
<path d="M254.328 43.5982C254.328 43.5982 240.138 48.7355 243.082 54.0787C245.261 58.0236 259.539 60.4818 273.111 57.6851C273.111 57.6851 279.308 52.6656 271.639 47.3812C271.639 47.4695 267.517 41.5816 254.328 43.5982Z" fill="black"/>
<path d="M254.52 93.7191C257.594 91.9196 260.998 90.7535 264.529 90.2894C268.915 90.0641 273.311 90.3905 277.615 91.2609C277.615 91.2609 277.218 97.5904 265.236 98.9888C262.885 99.3119 260.494 99.1669 258.2 98.5619C255.904 97.9142 255.359 96.3245 254.52 93.7191Z" fill="#FFC9BD"/>
<path d="M214.408 157H173.693V152.407H214.364C214.973 152.407 215.557 152.649 215.988 153.08C216.418 153.51 216.66 154.094 216.66 154.703C216.661 155.305 216.425 155.882 216.004 156.312C215.582 156.741 215.01 156.988 214.408 157Z" fill="#061418"/>
<path d="M179.081 157H120.703C119.194 157.006 117.724 156.519 116.518 155.613C115.311 154.707 114.434 153.431 114.02 151.98L102.494 110.559C102.41 110.21 102.406 109.846 102.482 109.495C102.557 109.145 102.711 108.816 102.932 108.533C103.153 108.25 103.435 108.02 103.756 107.861C104.078 107.702 104.432 107.618 104.791 107.615H163.891C164.519 107.616 165.129 107.825 165.626 108.208C166.124 108.591 166.481 109.127 166.643 109.734L179.081 157Z" fill="#1C2E34"/>
<path d="M142.856 133.227C142.856 134.237 142.556 135.225 141.995 136.065C141.434 136.905 140.636 137.559 139.703 137.946C138.769 138.333 137.742 138.434 136.751 138.237C135.761 138.04 134.851 137.553 134.136 136.839C133.422 136.125 132.935 135.214 132.738 134.224C132.541 133.233 132.642 132.206 133.029 131.272C133.416 130.339 134.07 129.541 134.91 128.98C135.75 128.419 136.738 128.119 137.748 128.119C138.419 128.117 139.084 128.248 139.705 128.504C140.325 128.76 140.889 129.136 141.364 129.611C141.839 130.086 142.215 130.65 142.471 131.27C142.727 131.891 142.858 132.556 142.856 133.227Z" fill="white"/>
<path d="M163.994 162.446V265.16" stroke="#55382E" stroke-width="1.15" stroke-miterlimit="10"/>
<path d="M248.588 157H75.0562V167.892H248.588V157Z" fill="white"/>
<path d="M390.222 265.161H0" stroke="#55382E" stroke-width="1.15" stroke-miterlimit="10"/>
</svg>
